<?xml version="1.0" encoding="UTF-8" standalone="no"?>
<svg
   viewBox="0 0 24 24"
   version="1.1"
   id="svg832"
   sodipodi:docname="canvas.svg"
   inkscape:version="1.1 (c4e8f9e, 2021-05-24)"
   xmlns:inkscape="http://www.inkscape.org/namespaces/inkscape"
   xmlns:sodipodi="http://sodipodi.sourceforge.net/DTD/sodipodi-0.dtd"
   xmlns="http://www.w3.org/2000/svg"
   xmlns:svg="http://www.w3.org/2000/svg">
  <defs
     id="defs836" />
  <sodipodi:namedview
     id="namedview834"
     pagecolor="#505050"
     bordercolor="#ffffff"
     borderopacity="1"
     inkscape:pageshadow="0"
     inkscape:pageopacity="0"
     inkscape:pagecheckerboard="1"
     showgrid="false"
     inkscape:snap-bbox="true"
     inkscape:bbox-paths="true"
     inkscape:bbox-nodes="true"
     inkscape:snap-bbox-edge-midpoints="true"
     inkscape:snap-bbox-midpoints="true"
     inkscape:snap-intersection-paths="true"
     inkscape:object-paths="true"
     inkscape:snap-smooth-nodes="true"
     inkscape:snap-midpoints="true"
     inkscape:snap-object-midpoints="true"
     inkscape:snap-center="true"
     inkscape:snap-text-baseline="true"
     inkscape:snap-page="true"
     inkscape:snap-global="true"
     inkscape:zoom="34.804277"
     inkscape:cx="11.535939"
     inkscape:cy="12.527196"
     inkscape:window-width="2560"
     inkscape:window-height="1307"
     inkscape:window-x="3440"
     inkscape:window-y="25"
     inkscape:window-maximized="1"
     inkscape:current-layer="svg832"
     showguides="true"
     inkscape:guide-bbox="true">
    <sodipodi:guide
       position="4.410712,2.7705112"
       orientation="0.8660254,-0.5"
       id="guide1856"
       inkscape:label=""
       inkscape:locked="false"
       inkscape:color="rgb(0,0,255)" />
    <sodipodi:guide
       position="19.589288,2.7705122"
       orientation="-0.8660254,-0.5"
       id="guide1858"
       inkscape:label=""
       inkscape:locked="false"
       inkscape:color="rgb(0,0,255)" />
    <sodipodi:guide
       position="11.119107,4.576726"
       orientation="-0.0024953443,-0.99999689"
       id="guide1860" />
    <sodipodi:guide
       position="12,6.0622522"
       orientation="0,-1"
       id="guide2354" />
    <sodipodi:guide
       position="12,20.218502"
       orientation="0,1"
       id="guide3066" />
  </sodipodi:namedview>
  <g
     id="g3053"
     transform="translate(0,0.94165377)">
    <path
       id="rect1025"
       style="fill:#000000;stroke-width:0.7;stroke-linecap:round;stroke-linejoin:round"
       d="M 5.984375,2.8398438 C 4.3315478,2.8398438 3,4.1694385 3,5.8222656 v 7.0332034 c 0,1.600848 1.2497697,2.896413 2.8300781,2.976562 l -1.7846005,3.09057 c -0.277,0.479777 -0.1145437,1.088234 0.3652344,1.365234 0.4797781,0.276999 1.0901875,0.114543 1.3671875,-0.365234 l 0.5365536,-0.92846 c 0.010377,3.15e-4 0.2919337,-0.52378 0.3023897,-0.523754 l 10.7493962,0.02682 c 0.01046,2.6e-5 0.308928,0.497331 0.319308,0.496931 L 18.2221,19.9226 c 0.277,0.479778 0.88741,0.642234 1.367188,0.365234 0.479778,-0.277 0.642234,-0.885456 0.365234,-1.365234 l -1.7846,-3.090569 C 19.75023,15.751882 21,14.456317 21,12.855469 V 5.8222656 C 21,4.1694385 19.668452,2.8398438 18.015625,2.8398438 Z M 6.7773438,4.3417969 H 17.222656 c 1.270895,0 2.294922,1.022074 2.294922,2.2929687 v 5.2777954 c 0,1.270894 -1.024027,2.294922 -2.294922,2.294922 H 6.7773438 c -1.2708948,0 -2.2949219,-1.024028 -2.2949219,-2.294922 V 6.6347656 c 0,-1.2708947 1.024027,-2.2929687 2.2949219,-2.2929687 z M 8.1347656,15.839844 h 7.7304684 l 0.667969,1.15625 H 7.4667969 Z"
       sodipodi:nodetypes="sssccsccssccsccsssssssssssssccccc" />
    <rect
       style="fill:#000000;stroke-width:0.7;stroke-linecap:round;stroke-linejoin:round"
       id="rect2264"
       width="20.931026"
       height="1.624548"
       x="1.5344864"
       y="14.207483"
       ry="0.81227398" />
    <rect
       style="fill:#000000;stroke-width:0.7;stroke-linecap:round;stroke-linejoin:round"
       id="rect2848"
       width="2.9851291"
       height="2.6479878"
       x="10.507435"
       y="1.6938092"
       ry="0.77310389" />
  </g>
</svg>
