<?xml version="1.0" encoding="UTF-8" standalone="no"?>
<!DOCTYPE svg PUBLIC "-//W3C//DTD SVG 1.1//EN" "http://www.w3.org/Graphics/SVG/1.1/DTD/svg11.dtd">
<svg width="100%" height="100%" viewBox="0 0 24 24" version="1.1" xmlns="http://www.w3.org/2000/svg" xmlns:xlink="http://www.w3.org/1999/xlink" xml:space="preserve" xmlns:serif="http://www.serif.com/" style="fill-rule:evenodd;clip-rule:evenodd;stroke-linejoin:round;stroke-miterlimit:2;">
    <g transform="matrix(0.896552,-1.11022e-16,1.11022e-16,0.896552,1.24138,1.24138)">
        <g id="g834">
            <rect id="rect824" x="0" y="0" width="24" height="24" style="fill-opacity:0;"/>
            <g>
                <g transform="matrix(-0.866025,0.5,0.5,0.866025,15.2685,-5.15336)">
                    <g id="path830" transform="matrix(1,4.93038e-32,-4.93038e-32,1,2.23077,2.22045e-16)">
                        <path d="M23,11.24C22.539,8.185 19.848,5.925 16.76,6L15.25,6C14.44,6 14,6.45 14,7C14,7.549 14.451,8 15,8L16.79,8C18.909,7.943 20.744,9.526 21,11.63C21.011,11.753 21.017,11.876 21.017,12C21.017,14.194 19.211,16 17.017,16C17.011,16 17.006,16 17,16L15,16C14.451,16 14,16.451 14,17C14,17.549 14.451,18 15,18L17,18C17.016,18 17.032,18 17.048,18C20.34,18 23.048,15.292 23.048,12C23.048,11.746 23.032,11.492 23,11.24Z" style="fill-rule:nonzero;"/>
                    </g>
                    <g transform="matrix(0.559837,1.00403e-16,-2.00037e-16,1.11538,9.15695,-1.34674)">
                        <path d="M15.586,12C15.586,11.505 14.786,11.103 13.8,11.103L10.2,11.103C9.214,11.103 8.414,11.505 8.414,12C8.414,12.495 9.214,12.897 10.2,12.897L13.8,12.897C14.786,12.897 15.586,12.495 15.586,12Z"/>
                    </g>
                </g>
                <g transform="matrix(0.866025,0.5,-0.5,0.866025,8.73153,-5.15336)">
                    <g id="path8301" serif:id="path830" transform="matrix(1,4.93038e-32,-4.93038e-32,1,2.23077,2.22045e-16)">
                        <path d="M23,11.24C22.539,8.185 19.848,5.925 16.76,6L15.25,6C14.44,6 14,6.45 14,7C14,7.549 14.451,8 15,8L16.79,8C18.909,7.943 20.744,9.526 21,11.63C21.011,11.753 21.017,11.876 21.017,12C21.017,14.194 19.211,16 17.017,16C17.011,16 17.006,16 17,16L15,16C14.451,16 14,16.451 14,17C14,17.549 14.451,18 15,18L17,18C17.016,18 17.032,18 17.048,18C20.34,18 23.048,15.292 23.048,12C23.048,11.746 23.032,11.492 23,11.24Z" style="fill-rule:nonzero;"/>
                    </g>
                    <g transform="matrix(0.559837,1.00403e-16,-2.00037e-16,1.11538,9.15695,-1.34674)">
                        <path d="M15.586,12C15.586,11.505 14.786,11.103 13.8,11.103L10.2,11.103C9.214,11.103 8.414,11.505 8.414,12C8.414,12.495 9.214,12.897 10.2,12.897L13.8,12.897C14.786,12.897 15.586,12.495 15.586,12Z"/>
                    </g>
                </g>
                <g transform="matrix(1.7059,3.81406e-16,3.81406e-16,-1.37411,-8.48013,28.5426)">
                    <g>
                        <g transform="matrix(0.965951,-0.557692,-0.357292,-0.618848,9.42115,23.2007)">
                            <g transform="matrix(2.22045e-16,1.53099,-1,-2.22045e-16,12.927,-20.5074)">
                                <path d="M18.98,5.287C18.98,5.046 18.635,4.94 18.451,4.909C17.94,4.823 17.429,4.737 16.918,4.651C16.457,4.573 15.37,4.593 15.37,5.287C15.37,5.981 16.457,6 16.918,5.923C17.429,5.836 17.94,5.75 18.451,5.664C18.635,5.633 18.98,5.527 18.98,5.287Z"/>
                            </g>
                        </g>
                        <g transform="matrix(1.11538,-2.74964e-32,4.44089e-16,-0.714584,3.48377,20.6553)">
                            <g transform="matrix(2.22045e-16,1.53099,-1,-2.22045e-16,12.927,-20.5074)">
                                <path d="M18.98,5.287C18.98,5.026 18.546,4.925 18.359,4.894C17.935,4.822 17.512,4.751 17.088,4.68C16.636,4.604 15.37,4.561 15.37,5.287C15.37,6.013 16.636,5.97 17.088,5.894C17.512,5.823 17.935,5.751 18.359,5.68C18.546,5.648 18.98,5.547 18.98,5.287Z"/>
                            </g>
                        </g>
                        <g transform="matrix(-0.965951,-0.557692,0.357292,-0.618848,14.8531,23.2007)">
                            <g transform="matrix(2.22045e-16,1.53099,-1,-2.22045e-16,12.927,-20.5074)">
                                <path d="M18.98,5.287C18.98,5.046 18.635,4.94 18.451,4.909C17.94,4.823 17.429,4.737 16.918,4.651C16.457,4.573 15.37,4.593 15.37,5.287C15.37,5.981 16.457,6 16.918,5.923C17.429,5.836 17.94,5.75 18.451,5.664C18.635,5.633 18.98,5.527 18.98,5.287Z"/>
                            </g>
                        </g>
                    </g>
                </g>
            </g>
        </g>
    </g>
</svg>
