<?xml version="1.0" encoding="utf-8"?>
<!-- Generator: Adobe Illustrator 27.1.1, SVG Export Plug-In . SVG Version: 6.00 Build 0)  -->
<svg version="1.1" id="Layer_1" xmlns="http://www.w3.org/2000/svg" xmlns:xlink="http://www.w3.org/1999/xlink" x="0px" y="0px"
	 viewBox="0 0 24 24" style="enable-background:new 0 0 24 24;" xml:space="preserve">
<g id="Asset_x2F_Font-Symbols_x2F_Display">
	<g id="Aa" transform="translate(1.748000, 8.688000)">
		<path id="Shape" d="M7.2,6.9H2.6L1.8,9.2h-1.9l3.9-11h2.1l3.9,11H8L7.2,6.9z M6.7,5.5L4.9,0.4L3.1,5.5H6.7z"/>
		<path id="Shape_00000046335862477241471740000008129542245647568553_" d="M11,4.8c0-0.9,0.2-1.6,0.5-2.3c0.4-0.7,0.9-1.2,1.5-1.6
			c0.6-0.4,1.3-0.6,2.1-0.6c0.7,0,1.3,0.1,1.8,0.4s0.9,0.6,1.2,1V0.5h1.8v8.7h-1.8V7.9c-0.3,0.4-0.7,0.8-1.2,1
			c-0.5,0.3-1.1,0.4-1.8,0.4c-0.7,0-1.4-0.2-2.1-0.6s-1.1-0.9-1.5-1.6C11.2,6.4,11,5.7,11,4.8z M18.1,4.8c0-0.6-0.1-1.1-0.4-1.6
			c-0.2-0.4-0.6-0.8-1-1c-0.4-0.2-0.8-0.3-1.3-0.3c-0.5,0-0.9,0.1-1.3,0.3s-0.7,0.6-1,1c-0.2,0.4-0.4,1-0.4,1.6s0.1,1.1,0.4,1.6
			c0.2,0.5,0.6,0.8,1,1c0.4,0.2,0.8,0.4,1.3,0.4c0.5,0,0.9-0.1,1.3-0.3c0.4-0.2,0.7-0.6,1-1C18,5.9,18.1,5.4,18.1,4.8z"/>
	</g>
</g>
</svg>
