<?xml version="1.0" encoding="utf-8"?>
<!-- Generator: Adobe Illustrator 27.6.1, SVG Export Plug-In . SVG Version: 6.00 Build 0)  -->
<svg version="1.1" id="Layer_2" xmlns="http://www.w3.org/2000/svg" xmlns:xlink="http://www.w3.org/1999/xlink" x="0px" y="0px"
	 viewBox="0 0 2000 2000" style="enable-background:new 0 0 2000 2000;" xml:space="preserve">
<style type="text/css">
	.st0{fill-rule:evenodd;clip-rule:evenodd;fill:none;stroke:#FFFFFF;stroke-width:100;stroke-linecap:round;stroke-miterlimit:10;}
</style>
<g>
	<circle cx="575.2" cy="1460.1" r="415"/>
	<line class="st0" x1="354.9" y1="1460.1" x2="804.9" y2="1460.1"/>
	<line class="st0" x1="579.9" y1="1235.1" x2="579.9" y2="1685.1"/>
</g>
<path d="M1581.9,661.6l-0.2-0.3l-390.7-439.7c-37-42.4-90.5-66.7-146.9-66.7H629c-58.8,0-114,22.9-155.6,64.4
	c-41.6,41.6-64.4,96.8-64.4,155.6v519.5c44.7-13.1,91.6-21.1,140-23.2V374.9c0-44.1,35.9-80,80-80h320.4v364.5
	c0,58.8,22.9,114,64.4,155.6c41.6,41.6,96.8,64.4,155.6,64.4h320.4v596c0,44.1-35.9,80-80,80h-252.7c-8,49-22,95.9-41.2,140h293.9
	c58.8,0,114-22.9,155.6-64.4s64.4-96.8,64.4-155.6V789.6C1629.7,742.6,1612.7,697.1,1581.9,661.6z M1169.4,739.5
	c-44.1,0-80-35.9-80-80V318.2l374.4,421.3H1169.4z"/>
</svg>
