<?xml version="1.0" encoding="utf-8"?>
<!-- Generator: Adobe Illustrator 27.6.1, SVG Export Plug-In . SVG Version: 6.00 Build 0)  -->
<svg version="1.1" id="Layer_1" xmlns:serif="http://www.serif.com/"
	 xmlns="http://www.w3.org/2000/svg" xmlns:xlink="http://www.w3.org/1999/xlink" x="0px" y="0px" viewBox="0 0 2000 2000"
	 style="enable-background:new 0 0 2000 2000;" xml:space="preserve">
<style type="text/css">
	.st0{fill-rule:evenodd;clip-rule:evenodd;fill:#FFFFFF;}
</style>
<g>
	<path d="M1347.2,1842.7H652.7c-158,0-286-128-286-286V896.8c0-158,128-286,286-286h694.4c158,0,286,128,286,286v659.9
		C1633.2,1714.7,1505.1,1842.7,1347.2,1842.7z"/>
	<path id="path3777_00000166640883047118838760000009197242053841702016_" class="st0" d="M1064.1,574.4v604.5l173-190.7
		c15.4-12.8,34-17.7,50.4-15.2c16.5,2.5,30.6,11.5,40.6,23.5c10,12,16.2,27.4,15.6,44.1c-0.5,16.7-8.5,34-23.9,46.8l-279.8,279.8
		l-8.5,5.2l-7.4,4.1l-1.2,0.3c-9.9,3.8-20.4,5.2-30.9,4h-0.1c-5.3-0.7-10.4-2-15.4-4l-1.2-0.4l-7.4-4l-8.5-5.2l-279.8-279.8
		c-27.4-22.7-31.1-63.8-8.2-91c22.7-27.3,63.7-30.9,90.9-8.2l173,190.7c0,0,0-505.4,0-604.5H1064.1z"/>
	<path d="M999.9,546.4L999.9,546.4c-35.5,0-64.4,28.8-64.4,64.4V221.6c0-35.5,28.8-64.4,64.4-64.4h0c35.5,0,64.4,28.8,64.4,64.4
		v389.1C1064.3,575.2,1035.5,546.4,999.9,546.4z"/>
</g>
</svg>
