<?xml version="1.0" encoding="utf-8"?>
<!-- Generator: Adobe Illustrator 27.1.1, SVG Export Plug-In . SVG Version: 6.00 Build 0)  -->
<svg version="1.1" id="Layer_1" xmlns="http://www.w3.org/2000/svg" xmlns:xlink="http://www.w3.org/1999/xlink" x="0px" y="0px"
	 viewBox="0 0 24 24" style="enable-background:new 0 0 24 24;" xml:space="preserve">
<g id="Asset_x2F_Font-Symbols_x2F_Italic">
	<g id="I" transform="translate(8.148438, 5.812500)">
		<path id="Path" d="M2.4-0.4l0.2-0.4h7.2L9.5-0.4C8.9-0.4,8.4-0.3,8,0C7.6,0.3,7.3,0.9,7.1,1.8l-2.8,9.5c-0.2,0.6-0.3,1.1-0.3,1.3
			c0,0.3,0.1,0.5,0.3,0.6c0.3,0.2,0.7,0.3,1.5,0.3l-0.1,0.4h-7.3l0.2-0.4c0.7,0,1.3-0.2,1.7-0.5c0.4-0.3,0.6-0.8,0.8-1.7l2.8-9.5
			C4,1.3,4.1,0.8,4.1,0.5S4,0.1,3.8-0.1C3.5-0.3,3.1-0.4,2.4-0.4z"/>
	</g>
</g>
</svg>
