<?xml version="1.0" encoding="UTF-8" standalone="no"?>
<!DOCTYPE svg PUBLIC "-//W3C//DTD SVG 1.1//EN" "http://www.w3.org/Graphics/SVG/1.1/DTD/svg11.dtd">
<svg width="100%" height="100%" viewBox="0 0 24 24" version="1.1" xmlns="http://www.w3.org/2000/svg" xmlns:xlink="http://www.w3.org/1999/xlink" xml:space="preserve" xmlns:serif="http://www.serif.com/" style="fill-rule:evenodd;clip-rule:evenodd;stroke-linejoin:round;stroke-miterlimit:2;">
    <g transform="matrix(0.740905,0,0,0.740905,1.997,6.36398)">
        <g id="Asset-Font-Symbols-Mixed-Caps" serif:id="Asset/Font-Symbols/Mixed-Caps">
            <g id="Aa">
                <path id="Shape" d="M5.61,9.636L7.656,3.872L7.7,3.872L9.68,9.636L5.61,9.636ZM5.94,0L0,15.708L3.476,15.708L4.708,12.21L10.582,12.21L11.77,15.708L15.356,15.708L9.482,0L5.94,0Z" style="fill-rule:nonzero;"/>
                <path id="Shape1" serif:id="Shape" d="M16.258,7.832C16.302,7.099 16.485,6.49 16.808,6.006C17.131,5.522 17.541,5.133 18.04,4.84C18.539,4.547 19.1,4.338 19.723,4.213C20.346,4.088 20.973,4.026 21.604,4.026C22.176,4.026 22.755,4.066 23.342,4.147C23.929,4.228 24.464,4.385 24.948,4.62C25.432,4.855 25.828,5.181 26.136,5.599C26.444,6.017 26.598,6.571 26.598,7.26L26.598,13.178C26.598,13.691 26.627,14.183 26.686,14.652C26.745,15.121 26.847,15.473 26.994,15.708L23.826,15.708C23.767,15.532 23.72,15.352 23.683,15.169C23.646,14.986 23.621,14.799 23.606,14.608C23.107,15.121 22.521,15.481 21.846,15.686C21.171,15.891 20.482,15.994 19.778,15.994C19.235,15.994 18.729,15.928 18.26,15.796C17.791,15.664 17.38,15.459 17.028,15.18C16.676,14.901 16.401,14.549 16.203,14.124C16.005,13.699 15.906,13.193 15.906,12.606C15.906,11.961 16.02,11.429 16.247,11.011C16.474,10.593 16.768,10.259 17.127,10.01C17.486,9.761 17.897,9.574 18.359,9.449C18.821,9.324 19.287,9.225 19.756,9.152C20.225,9.079 20.687,9.02 21.142,8.976C21.597,8.932 22,8.866 22.352,8.778C22.704,8.69 22.983,8.562 23.188,8.393C23.393,8.224 23.489,7.979 23.474,7.656C23.474,7.319 23.419,7.051 23.309,6.853C23.199,6.655 23.052,6.501 22.869,6.391C22.686,6.281 22.473,6.208 22.231,6.171C21.989,6.134 21.729,6.116 21.45,6.116C20.834,6.116 20.35,6.248 19.998,6.512C19.646,6.776 19.441,7.216 19.382,7.832L16.258,7.832ZM23.474,10.142C23.342,10.259 23.177,10.351 22.979,10.417C22.781,10.483 22.568,10.538 22.341,10.582C22.114,10.626 21.875,10.663 21.626,10.692C21.377,10.721 21.127,10.758 20.878,10.802C20.643,10.846 20.412,10.905 20.185,10.978C19.958,11.051 19.76,11.15 19.591,11.275C19.422,11.4 19.287,11.557 19.184,11.748C19.081,11.939 19.03,12.181 19.03,12.474C19.03,12.753 19.081,12.987 19.184,13.178C19.287,13.369 19.426,13.519 19.602,13.629C19.778,13.739 19.983,13.816 20.218,13.86C20.453,13.904 20.695,13.926 20.944,13.926C21.56,13.926 22.037,13.823 22.374,13.618C22.711,13.413 22.961,13.167 23.122,12.881C23.283,12.595 23.382,12.305 23.419,12.012C23.456,11.719 23.474,11.484 23.474,11.308L23.474,10.142Z" style="fill-rule:nonzero;"/>
            </g>
        </g>
    </g>
</svg>
