<?xml version="1.0" encoding="UTF-8" standalone="no"?>
<!DOCTYPE svg PUBLIC "-//W3C//DTD SVG 1.1//EN" "http://www.w3.org/Graphics/SVG/1.1/DTD/svg11.dtd">
<svg width="100%" height="100%" viewBox="0 0 60 24" version="1.1" xmlns="http://www.w3.org/2000/svg" xmlns:xlink="http://www.w3.org/1999/xlink" xml:space="preserve" xmlns:serif="http://www.serif.com/" style="fill-rule:evenodd;clip-rule:evenodd;stroke-linejoin:round;stroke-miterlimit:2;">
    <g transform="matrix(1.46667,0,0,1.46667,-10.0561,1.03696)">
        <g>
            <path d="M19.97,3.049L19.97,11.776L18.756,11.776L14.321,5.377L14.242,5.377L14.242,11.776L12.923,11.776L12.923,3.049L14.143,3.049L18.582,9.458L18.664,9.458L18.664,3.049L19.97,3.049Z" style="fill-rule:nonzero;"/>
            <path d="M24.613,11.909C23.998,11.909 23.462,11.768 23.005,11.486C22.549,11.205 22.194,10.811 21.941,10.305C21.688,9.799 21.562,9.209 21.562,8.534C21.562,7.854 21.688,7.26 21.941,6.752C22.194,6.244 22.549,5.849 23.005,5.567C23.462,5.286 23.998,5.145 24.613,5.145C25.228,5.145 25.763,5.286 26.22,5.567C26.677,5.849 27.032,6.244 27.285,6.752C27.537,7.26 27.664,7.854 27.664,8.534C27.664,9.209 27.537,9.799 27.285,10.305C27.032,10.811 26.677,11.205 26.22,11.486C25.763,11.768 25.228,11.909 24.613,11.909ZM24.616,10.838C25.015,10.838 25.345,10.733 25.606,10.522C25.866,10.311 26.06,10.031 26.188,9.682C26.315,9.332 26.379,8.949 26.379,8.53C26.379,8.112 26.315,7.726 26.188,7.375C26.06,7.024 25.866,6.741 25.606,6.528C25.345,6.315 25.015,6.209 24.616,6.209C24.215,6.209 23.884,6.315 23.622,6.528C23.36,6.741 23.165,7.024 23.038,7.375C22.911,7.726 22.847,8.112 22.847,8.53C22.847,8.949 22.911,9.332 23.038,9.682C23.165,10.031 23.36,10.311 23.622,10.522C23.884,10.733 24.215,10.838 24.616,10.838Z" style="fill-rule:nonzero;"/>
            <path d="M30.289,7.889L30.289,11.776L29.014,11.776L29.014,5.23L30.238,5.23L30.238,6.297L30.32,6.297C30.471,5.949 30.707,5.669 31.029,5.46C31.351,5.25 31.758,5.145 32.249,5.145C32.696,5.145 33.087,5.238 33.421,5.425C33.756,5.612 34.016,5.888 34.201,6.254C34.387,6.62 34.479,7.073 34.479,7.613L34.479,11.776L33.204,11.776L33.204,7.767C33.204,7.291 33.081,6.919 32.834,6.651C32.587,6.383 32.248,6.25 31.816,6.25C31.521,6.25 31.258,6.314 31.028,6.442C30.798,6.57 30.618,6.756 30.487,7.001C30.355,7.246 30.289,7.542 30.289,7.889Z" style="fill-rule:nonzero;"/>
            <path d="M38.859,11.909C38.215,11.909 37.66,11.77 37.194,11.492C36.729,11.215 36.371,10.824 36.12,10.32C35.869,9.815 35.743,9.225 35.743,8.547C35.743,7.876 35.869,7.284 36.12,6.773C36.371,6.262 36.723,5.862 37.176,5.576C37.629,5.289 38.159,5.145 38.767,5.145C39.139,5.145 39.498,5.206 39.844,5.327C40.19,5.449 40.5,5.641 40.775,5.902C41.05,6.164 41.268,6.503 41.428,6.92C41.588,7.337 41.668,7.842 41.668,8.435L41.668,8.885L36.463,8.885L36.463,7.93L40.417,7.93C40.417,7.597 40.349,7.301 40.213,7.04C40.078,6.78 39.887,6.574 39.641,6.424C39.396,6.274 39.108,6.199 38.778,6.199C38.419,6.199 38.107,6.286 37.843,6.46C37.578,6.634 37.373,6.861 37.229,7.142C37.085,7.423 37.013,7.726 37.012,8.053L37.012,8.796C37.012,9.234 37.089,9.606 37.244,9.913C37.399,10.22 37.616,10.453 37.895,10.614C38.173,10.775 38.498,10.855 38.87,10.855C39.113,10.855 39.335,10.821 39.533,10.751C39.732,10.682 39.903,10.578 40.047,10.439C40.192,10.3 40.303,10.128 40.38,9.921L41.587,10.139C41.49,10.494 41.318,10.804 41.069,11.07C40.821,11.335 40.51,11.542 40.135,11.688C39.76,11.835 39.335,11.909 38.859,11.909Z" style="fill-rule:nonzero;"/>
        </g>
    </g>
</svg>
