<?xml version="1.0" encoding="UTF-8" standalone="no"?>
<!DOCTYPE svg PUBLIC "-//W3C//DTD SVG 1.1//EN" "http://www.w3.org/Graphics/SVG/1.1/DTD/svg11.dtd">
<svg width="100%" height="100%" viewBox="0 0 24 24" version="1.1" xmlns="http://www.w3.org/2000/svg" xmlns:xlink="http://www.w3.org/1999/xlink" xml:space="preserve" xmlns:serif="http://www.serif.com/" style="fill-rule:evenodd;clip-rule:evenodd;stroke-linejoin:round;stroke-miterlimit:2;">
    <g id="g3637">
        <g id="g3635">
            <rect id="rect3629" x="0" y="0" width="24" height="24" style="fill-opacity:0;"/>
            <path id="path3633" d="M12,2C3.09,2 -1.37,12.771 4.929,19.071C11.229,25.37 22,20.91 22,12C22,6.477 17.523,2 12,2ZM16.114,11.545C16.272,11.642 16.367,11.813 16.367,11.998C16.366,12.183 16.269,12.353 16.11,12.448C14.601,13.354 11.2,15.393 9.648,16.324C9.485,16.422 9.282,16.424 9.116,16.331C8.951,16.237 8.849,16.061 8.849,15.871C8.849,14.021 8.849,9.902 8.849,8.044C8.849,7.853 8.952,7.677 9.118,7.584C9.285,7.491 9.489,7.495 9.652,7.594C11.207,8.545 14.608,10.624 16.114,11.545Z" style="fill-rule:nonzero;"/>
        </g>
    </g>
</svg>
