<?xml version="1.0" encoding="utf-8"?>
<!-- Generator: Adobe Illustrator 27.6.1, SVG Export Plug-In . SVG Version: 6.00 Build 0)  -->
<svg version="1.1" id="Layer_1" xmlns:serif="http://www.serif.com/"
	 xmlns="http://www.w3.org/2000/svg" xmlns:xlink="http://www.w3.org/1999/xlink" x="0px" y="0px" viewBox="0 0 2000 2000"
	 style="enable-background:new 0 0 2000 2000;" xml:space="preserve">
<style type="text/css">
	.st0{fill-rule:evenodd;clip-rule:evenodd;}
	.st1{fill-rule:evenodd;clip-rule:evenodd;fill:none;stroke:#000000;stroke-width:130;stroke-miterlimit:10;}
</style>
<g>
	<g transform="matrix(1,0,0,1,-2e-07,0.242392)">
		<path class="st0" d="M687.1,1093.1c-15.1-12.5-23.8-31.2-23.8-50.8c0-15.6,5.4-30.6,15.4-42.4c12.6-15,31.2-23.7,50.7-23.7
			c15.5,0,30.5,5.4,42.3,15.4l162.1,158.3V299.4c0-36,29.2-65.2,65.2-65.2h1.8c36,0,65.2,29.2,65.2,65.2v850.3l162.1-158.3
			c11.9-9.9,26.9-15.3,42.3-15.3c36.3,0,66.2,29.9,66.2,66.1c0,19.6-8.7,38.3-23.8,50.9l-269.4,247.7c-0.3,0.2-0.5,0.5-0.8,0.6
			c-1,0.8-2.1,1.7-3.4,2.5l-5.9,3.6c-0.5,0.3-1,0.6-1.6,0.9l-5.1,2.7c-1,0.5-1.9,1-2.9,1.3c-10.1,4-21.1,5.3-31.9,4l-0.3-0.1
			c-5.3-0.6-10.6-2-15.6-4l-2.8-1.3l-5.1-2.7l-1.6-0.9l-5.9-3.6c0,0-10.8-8.7-3-2.1L687.1,1093.1z"/>
	</g>
	<path class="st1" d="M803.2,671.3H642.3c-124.7,0-225.8,101.1-225.8,225.8v623.7c0,124.7,101.1,225.8,225.8,225.8h719
		c124.7,0,225.8-101.1,225.8-225.8V897.1c0-124.7-101.1-225.8-225.8-225.8h-165.5"/>
</g>
</svg>
