<?xml version="1.0" encoding="UTF-8" standalone="no"?>
<!DOCTYPE svg PUBLIC "-//W3C//DTD SVG 1.1//EN" "http://www.w3.org/Graphics/SVG/1.1/DTD/svg11.dtd">
<svg width="100%" height="100%" viewBox="0 0 24 24" version="1.1" xmlns="http://www.w3.org/2000/svg" xmlns:xlink="http://www.w3.org/1999/xlink" xml:space="preserve" xmlns:serif="http://www.serif.com/" style="fill-rule:evenodd;clip-rule:evenodd;stroke-linecap:round;stroke-linejoin:round;stroke-miterlimit:1.5;">
    <g transform="matrix(1.23792,0,0,1.23792,-2.53954,-3.22738)">
        <path d="M10.513,10.281C10.513,10.281 11.05,10.838 12.325,10.838C13.515,10.838 16.608,9.769 16.608,7.587C16.608,6.923 15.821,6.443 14.461,6.443C12.35,6.443 7.753,8.635 7.753,10.896C7.753,11.896 9.899,13.487 10.593,14.119C10.778,14.074 10.905,13.986 11.748,13.986C12.591,13.986 14.394,14.219 14.394,15.935C14.394,16.76 13.498,16.997 13.498,16.997C13.498,16.997 14.021,16.394 14.021,15.975C14.021,14.688 12.559,14.568 11.892,14.568C11.506,14.568 11.17,14.628 11.031,14.657C11.181,14.81 11.264,15.644 11.077,16.373C10.86,17.22 9.912,18.69 8.272,18.69C7.355,18.69 6.908,18.333 6.908,17.408C6.908,15.724 9.836,14.47 9.836,14.47C9.836,14.47 6.362,12.425 6.362,10.708C6.362,8.786 10.075,5.31 14.584,5.31C16.702,5.349 17.617,6.334 17.617,7.528C17.617,10.163 14.811,11.468 12.61,11.468C10.484,11.468 10.513,10.281 10.513,10.281ZM10.218,14.981C10.218,14.981 8.016,15.992 8.016,17.36C8.016,17.697 8.203,17.765 8.469,17.765C8.735,17.765 10.333,17.301 10.333,15.681C10.333,15.284 10.218,14.981 10.218,14.981Z" style="stroke:black;stroke-width:0.81px;"/>
    </g>
</svg>
