<?xml version="1.0" encoding="utf-8"?>
<!-- Generator: Adobe Illustrator 27.1.1, SVG Export Plug-In . SVG Version: 6.00 Build 0)  -->
<svg version="1.1" id="Layer_1" xmlns="http://www.w3.org/2000/svg" xmlns:xlink="http://www.w3.org/1999/xlink" x="0px" y="0px"
	 viewBox="0 0 24 24" style="enable-background:new 0 0 24 24;" xml:space="preserve">
<g id="search">
	<g id="_xD83C__xDFA8_-Icon-Сolor">
		<path id="path-1_00000092433873652316190910000017304146136166693046_" d="M4.2,10.9c0-3.7,3-6.7,6.7-6.7s6.7,3,6.7,6.7
			s-3,6.7-6.7,6.7S4.2,14.6,4.2,10.9 M21.7,20.1l-3.8-3.8c1.2-1.5,1.9-3.4,1.9-5.4c0-4.9-4-8.9-8.9-8.9S2,6,2,10.9s4,8.9,8.9,8.9
			c2.1,0,3.9-0.7,5.4-1.9l3.8,3.8c0.2,0.2,0.5,0.3,0.8,0.3s0.6-0.1,0.8-0.3C22.1,21.2,22.1,20.5,21.7,20.1"/>
	</g>
</g>
</svg>
