<?xml version="1.0" encoding="UTF-8" standalone="no"?>
<!DOCTYPE svg PUBLIC "-//W3C//DTD SVG 1.1//EN" "http://www.w3.org/Graphics/SVG/1.1/DTD/svg11.dtd">
<svg width="100%" height="100%" viewBox="0 0 24 24" version="1.1" xmlns="http://www.w3.org/2000/svg" xmlns:xlink="http://www.w3.org/1999/xlink" xml:space="preserve" xmlns:serif="http://www.serif.com/" style="fill-rule:evenodd;clip-rule:evenodd;stroke-linejoin:round;stroke-miterlimit:2;">
    <g id="rect2583" transform="matrix(-3.82857e-16,1,-1,-3.82857e-16,0,0)">
        <rect x="0.062" y="-24" width="24" height="24" style="fill-opacity:0;"/>
    </g>
    <g id="g4342">
        <g id="rect2581" transform="matrix(1,0,0,1,0,0.38073)">
            <path d="M6.73,7.986C5.232,7.986 4.025,9.193 4.025,10.691L4.025,19.146C4.025,20.644 5.232,21.851 6.73,21.851L17.27,21.851C18.768,21.851 19.975,20.644 19.975,19.146L19.975,10.691C19.975,9.193 18.768,7.986 17.27,7.986L12.895,7.986L12.895,14.767C12.895,15.258 12.491,15.662 12,15.662C11.509,15.662 11.105,15.258 11.105,14.767L11.105,7.986L6.73,7.986Z" style="fill-rule:nonzero;"/>
        </g>
        <path id="path3777" d="M12.895,8.427C12.895,8.918 12.496,9.317 12.004,9.317C12.001,9.317 11.999,9.317 11.996,9.317C11.504,9.317 11.105,8.918 11.105,8.427C11.105,7.053 11.105,4.573 11.105,4.573L8.707,6.569C8.33,6.884 7.762,6.834 7.447,6.456C7.13,6.079 7.181,5.509 7.561,5.194L11.441,1.962L11.559,1.89L11.662,1.835L11.678,1.829C11.747,1.802 11.817,1.784 11.891,1.774L11.893,1.774C12.039,1.757 12.185,1.776 12.322,1.829L12.338,1.833L12.441,1.89L12.559,1.962L16.439,5.194C16.653,5.372 16.764,5.612 16.771,5.843C16.779,6.074 16.694,6.287 16.555,6.454C16.416,6.621 16.221,6.746 15.992,6.78C15.764,6.815 15.506,6.747 15.293,6.569L12.895,4.573L12.895,8.427Z"/>
    </g>
</svg>
