<?xml version="1.0" encoding="utf-8"?>
<!-- Generator: Adobe Illustrator 27.6.1, SVG Export Plug-In . SVG Version: 6.00 Build 0)  -->
<svg version="1.1" id="Layer_1" xmlns:serif="http://www.serif.com/"
	 xmlns="http://www.w3.org/2000/svg" xmlns:xlink="http://www.w3.org/1999/xlink" x="0px" y="0px" viewBox="0 0 2000 2000"
	 style="enable-background:new 0 0 2000 2000;" xml:space="preserve">
<style type="text/css">
	.st0{fill-rule:evenodd;clip-rule:evenodd;fill:none;stroke:#000000;stroke-width:130;stroke-miterlimit:10;}
	.st1{fill-rule:evenodd;clip-rule:evenodd;}
</style>
<path class="st0" d="M812.8,765.2H671.6c-110.3,0-199.7,89.4-199.7,199.7v551.8c0,110.3,89.4,199.7,199.7,199.7h653.8
	c110.3,0,199.7-89.4,199.7-199.7V964.9c0-110.3-89.4-199.7-199.7-199.7h-145.2"/>
<g transform="matrix(1,0,0,1,-2e-07,0.242392)">
	<path class="st1" d="M957.9,207.6c-7.8,6.5,3-2.1,3-2.1l5.9-3.6l1.5-0.9l5.1-2.7l2.8-1.3c5-1.9,10.2-3.3,15.5-3.9l0.3-0.1
		c10.8-1.3,21.7,0.1,31.7,4c1,0.3,1.9,0.8,2.8,1.3l5.1,2.7c0.5,0.3,1,0.6,1.5,0.9l5.9,3.6c1.3,0.8,2.4,1.6,3.4,2.5
		c0.3,0.2,0.5,0.5,0.8,0.6l280.5,238.9c15,12.5,23.7,31.1,23.7,50.7c0,36.1-29.7,65.8-65.9,65.8c-15.4,0-30.3-5.4-42.1-15.2
		l-173.6-149.9v783.5c0,35.9-29.1,64.9-64.9,64.9h-1.8c-35.8,0-64.9-29-64.9-64.9V398.8L760.6,559.3c-11.8,9.9-26.7,15.3-42.1,15.3
		c-19.5,0-38-8.6-50.5-23.6c-9.9-11.8-15.4-26.8-15.4-42.3c0-19.6,8.7-38.1,23.7-50.6L957.9,207.6z"/>
</g>
</svg>
