<?xml version="1.0" encoding="utf-8"?>
<!-- Generator: Adobe Illustrator 27.6.1, SVG Export Plug-In . SVG Version: 6.00 Build 0)  -->
<svg version="1.1" id="Layer_1" xmlns:serif="http://www.serif.com/"
	 xmlns="http://www.w3.org/2000/svg" xmlns:xlink="http://www.w3.org/1999/xlink" x="0px" y="0px" viewBox="0 0 2000 2000"
	 style="enable-background:new 0 0 2000 2000;" xml:space="preserve">
<style type="text/css">
	.st0{fill-rule:evenodd;clip-rule:evenodd;}
</style>
<g>
	<path d="M1328.5,701.3h-254v561c0,40.9-33.7,74.6-74.6,74.6s-74.6-33.7-74.6-74.6v-561H672.2c-158,0-286,128-286,286v579.3
		c0,158,128,286,286,286h656.3c158,0,286-128,286-286V987.3C1614.5,829.3,1486.5,701.3,1328.5,701.3z"/>
	<path id="path3777" class="st0" d="M1074.6,706.3c0,40.9-33.2,74.2-74.3,74.2c-0.2,0-0.4,0-0.7,0c-41,0-74.3-33.2-74.3-74.2
		c0-114.5,0-325.2,0-325.2L725.6,547.4c-31.4,26.2-78.8,22.1-105-9.4c-26.4-31.4-22.2-78.9,9.5-105.2l323.3-269.3l9.8-6l8.6-4.6
		l1.3-0.5c5.7-2.2,11.6-3.8,17.7-4.6h0.2c12.2-1.4,24.3,0.2,35.7,4.6l1.3,0.3l8.6,4.8l9.8,6l323.3,269.3
		c17.8,14.8,27.1,34.8,27.7,54.1c0.7,19.2-6.4,37-18,50.9c-11.6,13.9-27.8,24.3-46.9,27.2c-19,2.9-40.5-2.8-58.2-17.6l-199.8-166.3
		v325.2H1074.6z"/>
</g>
</svg>
