<?xml version="1.0" encoding="utf-8"?>
<!-- Generator: Adobe Illustrator 26.3.1, SVG Export Plug-In . SVG Version: 6.00 Build 0)  -->
<svg version="1.1"
	 id="svg5" xmlns:inkscape="http://www.inkscape.org/namespaces/inkscape" xmlns:svg="http://www.w3.org/2000/svg" xmlns:sodipodi="http://sodipodi.sourceforge.net/DTD/sodipodi-0.dtd"
	 xmlns="http://www.w3.org/2000/svg" xmlns:xlink="http://www.w3.org/1999/xlink" x="0px" y="0px" viewBox="0 0 336.9 267.5"
	 style="enable-background:new 0 0 336.9 267.5;" xml:space="preserve">
<style type="text/css">
	.st0{fill:#FFFFFF;}
</style>
<sodipodi:namedview  bordercolor="#ffffff" borderopacity="1" fit-margin-bottom="0" fit-margin-left="0" fit-margin-right="0" fit-margin-top="0" id="namedview834" inkscape:current-layer="svg5" inkscape:cx="169.20395" inkscape:cy="144.82711" inkscape:pagecheckerboard="1" inkscape:pageopacity="0" inkscape:pageshadow="0" inkscape:window-height="1305" inkscape:window-maximized="0" inkscape:window-width="2560" inkscape:window-x="3440" inkscape:window-y="25" inkscape:zoom="2.0921498" pagecolor="#505050" showgrid="false">
	</sodipodi:namedview>
<g id="layer1" transform="translate(-23.163911,-32.38111)">
</g>
<path id="path1668" class="st0" d="M43.9,8.9L2.4,87.8c-1.5,2.9-1.5,6.3-0.1,9.2l83,164.9c1.7,3.4,5.2,5.5,9,5.5h4.1
	c4.6,0,8.7-3.2,9.8-7.7l34-139.3c0.2-0.9,0.3-1.7,0.3-2.6l-1.3-63.4c-0.1-3.7-2.1-7-5.4-8.7L57.5,4.7C52.5,2.1,46.5,4,43.9,8.9z"/>
<path id="path1670" class="st0" d="M206.2,264.1l126.6-137.2c2.5-2.8,3.4-6.6,2.3-10.2L301.9,10.1c-1.7-5.5-7.6-8.6-13.1-6.9
	L182.2,36.4c-3.5,1.1-6.2,3.9-7.1,7.5l-51.4,210.6c-1.6,6.6,3.4,13,10.2,13h64.7C201.5,267.5,204.3,266.2,206.2,264.1z"/>
</svg>
