<?xml version="1.0" encoding="utf-8"?>
<!-- Generator: Adobe Illustrator 27.1.1, SVG Export Plug-In . SVG Version: 6.00 Build 0)  -->
<svg version="1.1" id="Layer_1" xmlns="http://www.w3.org/2000/svg" xmlns:xlink="http://www.w3.org/1999/xlink" x="0px" y="0px"
	 viewBox="0 0 24 24" style="enable-background:new 0 0 24 24;" xml:space="preserve">
<style type="text/css">
	.st0{fill-rule:evenodd;clip-rule:evenodd;}
</style>
<g id="Asset_x2F_Font-Symbols_x2F_Align-Center">
	<g id="Group" transform="translate(0.000000, 7.000000)">
		<path id="Rectangle" class="st0" d="M2.9-0.4h18.1C21.6-0.4,22,0,22,0.5l0,0c0,0.5-0.4,0.9-0.9,0.9H2.9C2.4,1.4,2,1,2,0.5l0,0
			C2,0,2.4-0.4,2.9-0.4z"/>
		<path id="Rectangle_00000052088636929745583090000000332815571687531652_" class="st0" d="M7.9,4.6h8.8c0.5,0,0.9,0.4,0.9,0.9l0,0
			c0,0.5-0.4,0.9-0.9,0.9H7.9C7.4,6.4,7,6,7,5.5l0,0C7,5,7.4,4.6,7.9,4.6z"/>
		<path id="Rectangle_00000002366555369057450780000015224338898093272483_" class="st0" d="M4.8,9.6h14.4c0.5,0,0.9,0.4,0.9,0.9
			l0,0c0,0.5-0.4,0.9-0.9,0.9H4.8c-0.5,0-0.9-0.4-0.9-0.9l0,0C3.9,10,4.3,9.6,4.8,9.6z"/>
	</g>
</g>
</svg>
