<?xml version="1.0" encoding="utf-8"?>
<!-- Generator: Adobe Illustrator 27.1.1, SVG Export Plug-In . SVG Version: 6.00 Build 0)  -->
<svg version="1.1" id="Layer_1" xmlns="http://www.w3.org/2000/svg" xmlns:xlink="http://www.w3.org/1999/xlink" x="0px" y="0px"
	 viewBox="0 0 24 24" style="enable-background:new 0 0 24 24;" xml:space="preserve">
<style type="text/css">
	.st0{fill-rule:evenodd;clip-rule:evenodd;}
</style>
<g id="Asset_x2F_Font-Symbols_x2F_Align-Right">
	<g id="Group" transform="translate(0.000000, 7.000000)">
		<path id="Rectangle" class="st0" d="M2.9-0.4h18.1C21.6-0.4,22,0,22,0.5l0,0c0,0.5-0.4,0.9-0.9,0.9H2.9C2.4,1.4,2,1,2,0.5l0,0
			C2,0,2.4-0.4,2.9-0.4z"/>
		<path id="Rectangle_00000071547252843867765560000012475806247031693757_" class="st0" d="M12.3,4.6h8.8C21.6,4.6,22,5,22,5.5l0,0
			c0,0.5-0.4,0.9-0.9,0.9h-8.8c-0.5,0-0.9-0.4-0.9-0.9l0,0C11.4,5,11.8,4.6,12.3,4.6z"/>
		<path id="Rectangle_00000114752705525077362610000017222757618691570329_" class="st0" d="M6.7,9.6h14.4c0.5,0,0.9,0.4,0.9,0.9
			l0,0c0,0.5-0.4,0.9-0.9,0.9H6.7c-0.5,0-0.9-0.4-0.9-0.9l0,0C5.8,10,6.2,9.6,6.7,9.6z"/>
	</g>
</g>
</svg>
