<?xml version="1.0" encoding="UTF-8" standalone="no"?>
<svg
   viewBox="0 0 24 24"
   version="1.1"
   id="svg3274"
   sodipodi:docname="checkmark-circle.svg"
   inkscape:version="1.1 (c4e8f9e, 2021-05-24)"
   xmlns:inkscape="http://www.inkscape.org/namespaces/inkscape"
   xmlns:sodipodi="http://sodipodi.sourceforge.net/DTD/sodipodi-0.dtd"
   xmlns="http://www.w3.org/2000/svg"
   xmlns:svg="http://www.w3.org/2000/svg">
  <defs
     id="defs3278" />
  <sodipodi:namedview
     id="namedview3276"
     pagecolor="#505050"
     bordercolor="#ffffff"
     borderopacity="1"
     inkscape:pageshadow="0"
     inkscape:pageopacity="0"
     inkscape:pagecheckerboard="1"
     showgrid="false"
     inkscape:zoom="29"
     inkscape:cx="12"
     inkscape:cy="11.982759"
     inkscape:window-width="2560"
     inkscape:window-height="1306"
     inkscape:window-x="3440"
     inkscape:window-y="25"
     inkscape:window-maximized="1"
     inkscape:current-layer="svg3274" />
  <g
     data-name="Layer 2"
     id="g3272"
     transform="matrix(0.82758621,0,0,0.82758621,2.0689655,2.0689655)"
     style="stroke-width:1.20833">
    <g
       data-name="checkmark-circle"
       id="g3270"
       style="stroke-width:1.20833">
      <rect
         width="24"
         height="24"
         opacity="0"
         id="rect3264"
         x="0"
         y="0"
         style="stroke-width:1.46007" />
      <path
         d="m 9.71,11.29 a 1.0040916,1.0040916 0 0 0 -1.42,1.42 l 3,3 A 1,1 0 0 0 12,16 1,1 0 0 0 12.72,15.66 l 7,-8 A 1,1 0 0 0 18.22,6.34 L 12,13.54 Z"
         id="path3266"
         style="stroke-width:1.20833" />
      <path
         d="M 21,11 A 1,1 0 0 0 20,12 8,8 0 0 1 12,20 8,8 0 0 1 6.33,6.36 7.93,7.93 0 0 1 12,4 8.79,8.79 0 0 1 13.9,4.22 1,1 0 1 0 14.37,2.28 10.54,10.54 0 0 0 12,2 10,10 0 0 0 5,19.09 9.93,9.93 0 0 0 12,22 10,10 0 0 0 22,12 1,1 0 0 0 21,11 Z"
         id="path3268"
         style="stroke-width:1.20833" />
    </g>
  </g>
</svg>
