<?xml version="1.0" encoding="utf-8"?>
<!-- Generator: Adobe Illustrator 27.1.1, SVG Export Plug-In . SVG Version: 6.00 Build 0)  -->
<svg version="1.1" id="Layer_1" xmlns="http://www.w3.org/2000/svg" xmlns:xlink="http://www.w3.org/1999/xlink" x="0px" y="0px"
	 viewBox="0 0 24 24" style="enable-background:new 0 0 24 24;" xml:space="preserve">
<path id="Shape" d="M13.3,14.9c0.1,0.1,0.2,0.2,0.2,0.3c0,0.2-0.1,0.5-0.3,0.7c-0.2,0.2-0.4,0.4-0.8,0.5c-0.3,0.1-0.6,0.2-0.9,0.2
	c-0.5,0-0.8-0.2-1-0.5c-0.2-0.3-0.4-0.6-0.4-0.9C10,15,9.9,14.5,9.8,13.9c0-0.2-0.1-0.3-0.1-0.4c-0.1-0.1-0.2-0.1-0.4-0.1l-2.2,0
	c-0.7,1.2-1.4,2-1.9,2.5c-0.6,0.5-1.2,0.7-1.8,0.7c-0.4,0-0.7-0.1-0.9-0.2C2.1,16.3,2,16.1,2,15.8c0-0.2,0.1-0.4,0.2-0.5
	c0.1-0.2,0.3-0.3,0.6-0.3c0,0.4,0.1,0.6,0.2,0.7c0.1,0.1,0.3,0.2,0.5,0.2c0.4,0,0.9-0.2,1.3-0.5c0.4-0.3,0.9-1,1.6-1.9
	c-0.2,0-0.3-0.1-0.4-0.1c-0.1-0.1-0.1-0.1-0.1-0.2c0-0.1,0-0.2,0.1-0.3c0-0.1,0.1-0.2,0.1-0.3c0.1,0.1,0.4,0.1,0.9,0.2
	c0.5-0.7,1-1.6,1.6-2.5C9,9.2,9.3,8.6,9.4,8.4c0.2-0.3,0.4-0.7,0.7-1.2c0.1-0.2,0.2-0.3,0.3-0.3c0.1-0.1,0.2-0.1,0.3-0.1
	c0.1,0,0.2,0,0.4,0.1C11.1,7,11,7.2,10.9,7.5c0,0.3-0.1,0.6-0.1,1l0,0.5c0,0.5,0,1,0,1.6c0,0.6,0,1.1,0.1,1.5
	c0.1,0.8,0.1,1.4,0.2,1.9c0.1,0.5,0.2,0.9,0.4,1.2c0.2,0.3,0.4,0.5,0.7,0.5c0.2,0,0.4-0.1,0.6-0.2C13,15.3,13.2,15.1,13.3,14.9z
	 M8.8,12.8c0.2,0,0.6,0,0.9,0l0-2.1c0-0.7,0-1.3,0.1-1.8c-0.8,1.3-1.3,2.1-1.5,2.4l-0.9,1.5C8,12.8,8.4,12.8,8.8,12.8z"/>
<path id="Shape_00000139253881306663220330000015400063146506174905_" d="M21.8,13.3c0.2,0,0.2,0.1,0.2,0.4c0,0.4-0.2,0.9-0.5,1.3
	c-0.3,0.5-0.8,0.8-1.3,1.2c-0.5,0.3-1,0.5-1.4,0.5c-0.3,0-0.6-0.1-0.9-0.3c-0.2-0.2-0.4-0.4-0.5-0.8c-0.2,0.3-0.5,0.5-0.9,0.7
	c-0.3,0.2-0.6,0.3-0.9,0.3c-0.2,0-0.5-0.1-0.7-0.2c-0.2-0.1-0.4-0.3-0.6-0.5c-0.2-0.2-0.2-0.8-0.2-1c0-1.1,0.1-1.4,0.4-2.1
	c0.1-0.2,0.3-0.5,0.6-0.8s0.6-0.5,0.9-0.7c0.4-0.2,0.7-0.3,1.1-0.3c0.3,0,0.6,0.1,0.9,0.3c0.1-0.1,0.1-0.2,0.1-0.3s0.1-0.1,0.2-0.1
	l1.1-0.1l0,0c-0.1,0.1-0.2,0.2-0.2,0.3c-0.1,0.1-0.1,0.2-0.1,0.4c-0.2,0.5-0.3,1.2-0.5,1.9c-0.2,0.8-0.2,1.3-0.2,1.6
	c0,0.2,0.1,0.5,0.2,0.7c0.1,0.2,0.3,0.3,0.6,0.3c0.3,0,0.6-0.1,0.9-0.3c0.3-0.2,0.7-0.5,1-1C21.4,14.3,21.7,13.9,21.8,13.3z
	 M16.1,15.8c0.1,0,0.3-0.1,0.4-0.2c0.2-0.1,0.3-0.3,0.5-0.5s0.3-0.4,0.3-0.7l0.2-1c0.2-0.8,0.3-1.3,0.3-1.6
	c-0.2-0.1-0.5-0.2-0.7-0.2c-0.4,0-0.7,0.1-0.9,0.4s-0.3,0.5-0.5,0.8c-0.2,0.5-0.5,1-0.4,2.1c0,0.2,0.1,0.4,0.2,0.6
	C15.9,15.7,16,15.8,16.1,15.8z"/>
</svg>
