<?xml version="1.0" encoding="UTF-8" standalone="no"?>
<!DOCTYPE svg PUBLIC "-//W3C//DTD SVG 1.1//EN" "http://www.w3.org/Graphics/SVG/1.1/DTD/svg11.dtd">
<svg width="100%" height="100%" viewBox="0 0 24 24" version="1.1" xmlns="http://www.w3.org/2000/svg" xmlns:xlink="http://www.w3.org/1999/xlink" xml:space="preserve" xmlns:serif="http://www.serif.com/" style="fill-rule:evenodd;clip-rule:evenodd;stroke-linejoin:round;stroke-miterlimit:2;">
    <g transform="matrix(0.898473,0,0,0.898473,1.21833,1.21865)">
        <path d="M9.926,21.975C5.296,21.016 1.813,16.912 1.813,12C1.813,6.765 5.769,2.448 10.853,1.877C11.116,1.848 11.382,1.867 11.639,1.931C13.642,2.611 18.071,6.07 18.071,10.779C18.071,13.882 16.37,16.256 14.148,16.256C13.839,16.256 13.558,16.223 13.327,16.181C14.134,15.475 15.01,14.206 15.01,12.02C15.01,7.969 12,7.045 12,7.045C12,7.045 11.81,6.924 11.362,6.814C10.985,6.72 10.424,6.634 9.639,6.634C7.925,6.634 4.567,8.463 4.567,13.241C4.567,17.847 7.994,21.134 9.926,21.975ZM13.982,2.006C18.657,2.93 22.187,7.056 22.187,12C22.187,17.384 18.002,21.798 12.71,22.163C10.928,21.835 5.929,18.243 5.929,13.241C5.929,10.138 7.63,7.764 9.852,7.764C10.161,7.764 10.442,7.797 10.673,7.839C9.866,8.545 8.99,9.814 8.99,12C8.99,16.051 12,16.975 12,16.975C12,16.975 12.19,17.096 12.638,17.206C13.015,17.3 13.576,17.386 14.361,17.386C16.075,17.386 19.433,15.557 19.433,10.779C19.433,6.099 15.895,2.781 13.982,2.006Z"/>
    </g>
</svg>
