<?xml version="1.0" encoding="UTF-8" standalone="no"?>
<!DOCTYPE svg PUBLIC "-//W3C//DTD SVG 1.1//EN" "http://www.w3.org/Graphics/SVG/1.1/DTD/svg11.dtd">
<svg width="100%" height="100%" viewBox="0 0 24 24" version="1.1" xmlns="http://www.w3.org/2000/svg" xmlns:xlink="http://www.w3.org/1999/xlink" xml:space="preserve" xmlns:serif="http://www.serif.com/" style="fill-rule:evenodd;clip-rule:evenodd;stroke-linejoin:round;stroke-miterlimit:2;">
    <g>
        <g transform="matrix(-1,-7.65714e-16,7.65714e-16,-1,24,24)">
            <rect x="0" y="0" width="24" height="24" style="fill-opacity:0;"/>
        </g>
        <g transform="matrix(1.09945,0,0,1.09945,-1.68603,-1.68328)">
            <g transform="matrix(-0.37829,0.218406,1.15678e-16,0.450222,21.161,6.68015)">
                <path d="M23.347,4.437C23.348,2.176 21.912,0.782 19.581,0.782L8.122,0.782C6.609,0.783 4.744,1.687 3.231,3.155C1.718,4.623 0.786,6.432 0.786,7.9L0.786,19.555C0.786,21.817 2.222,23.21 4.553,23.21L16.012,23.21C17.525,23.21 19.389,22.306 20.902,20.838C22.415,19.37 23.347,17.561 23.347,16.093L23.347,4.437ZM18.854,6.617L18.854,18.273C18.854,18.392 18.778,18.539 18.655,18.658C18.533,18.777 18.382,18.85 18.259,18.85L6.8,18.85C5.859,18.85 5.28,18.288 5.28,17.375L5.28,5.72C5.28,5.6 5.356,5.454 5.478,5.335C5.601,5.216 5.752,5.143 5.875,5.143L17.334,5.143C18.274,5.143 18.854,5.705 18.854,6.617Z"/>
            </g>
            <path d="M10.639,16.573C10.726,16.522 10.834,16.524 10.919,16.577C11.005,16.63 11.054,16.725 11.048,16.825C11.037,17.017 11.023,17.24 11.01,17.457C10.988,17.817 10.803,18.148 10.508,18.355C10.212,18.562 9.838,18.622 9.493,18.519C8.765,18.277 8.181,17.607 8.181,16.751L8.181,11.503C8.181,10.485 8.724,9.544 9.606,9.035L13.94,6.532C14.642,6.127 15.461,6.259 16.026,6.713C16.317,6.955 16.472,7.324 16.442,7.701C16.411,8.079 16.199,8.418 15.873,8.61C15.724,8.719 15.565,8.813 15.427,8.895C15.342,8.944 15.238,8.945 15.153,8.896C15.068,8.848 15.015,8.757 15.015,8.66C15.015,8.401 15.015,8.135 15.015,8.135C15.015,8.019 14.89,7.947 14.79,8.005L10.456,10.507C10.1,10.713 9.881,11.092 9.881,11.503L9.881,16.751C9.881,16.866 10.006,16.938 10.106,16.881C10.106,16.881 10.381,16.722 10.639,16.573Z"/>
            <path d="M6.491,14.299C6.578,14.249 6.686,14.25 6.771,14.303C6.857,14.356 6.906,14.451 6.9,14.552C6.888,14.743 6.875,14.967 6.862,15.183C6.84,15.543 6.655,15.874 6.36,16.081C6.064,16.288 5.69,16.348 5.344,16.246C4.617,16.003 4.032,15.333 4.032,14.477L4.032,9.23C4.032,8.211 4.576,7.27 5.457,6.761L9.792,4.259C10.494,3.854 11.313,3.985 11.878,4.439C12.169,4.681 12.324,5.05 12.294,5.428C12.263,5.805 12.051,6.144 11.725,6.336C11.576,6.446 11.417,6.539 11.279,6.621C11.194,6.67 11.09,6.671 11.005,6.623C10.92,6.574 10.867,6.484 10.867,6.386C10.867,6.127 10.867,5.861 10.867,5.861C10.867,5.745 10.742,5.673 10.642,5.731L6.307,8.234C5.952,8.439 5.732,8.819 5.732,9.23L5.732,14.477C5.733,14.593 5.857,14.665 5.957,14.607C5.957,14.607 6.233,14.448 6.491,14.299Z"/>
        </g>
    </g>
</svg>
