<?xml version="1.0" encoding="UTF-8" standalone="no"?>
<svg
   viewBox="0 0 24 24"
   version="1.1"
   id="svg836"
   sodipodi:docname="link.svg"
   inkscape:version="1.1 (c4e8f9e, 2021-05-24)"
   xmlns:inkscape="http://www.inkscape.org/namespaces/inkscape"
   xmlns:sodipodi="http://sodipodi.sourceforge.net/DTD/sodipodi-0.dtd"
   xmlns="http://www.w3.org/2000/svg"
   xmlns:svg="http://www.w3.org/2000/svg">
  <defs
     id="defs840" />
  <sodipodi:namedview
     id="namedview838"
     pagecolor="#505050"
     bordercolor="#ffffff"
     borderopacity="1"
     inkscape:pageshadow="0"
     inkscape:pageopacity="0"
     inkscape:pagecheckerboard="1"
     showgrid="false"
     inkscape:snap-global="false"
     inkscape:zoom="29"
     inkscape:cx="12"
     inkscape:cy="11.982759"
     inkscape:window-width="2560"
     inkscape:window-height="1306"
     inkscape:window-x="3440"
     inkscape:window-y="25"
     inkscape:window-maximized="0"
     inkscape:current-layer="svg836" />
  <g
     data-name="Layer 2"
     id="g834"
     transform="matrix(0.63395781,-0.63395781,0.63395781,0.63395781,-3.2149873,12)"
     style="stroke:#000000;stroke-width:0.78076922;stroke-miterlimit:4;stroke-dasharray:none">
    <g
       data-name="link"
       id="g832"
       style="stroke:#000000;stroke-width:0.78076922;stroke-miterlimit:4;stroke-dasharray:none">
      <rect
         width="24"
         height="24"
         opacity="0"
         id="rect824"
         x="0"
         y="0"
         style="stroke:#000000;stroke-width:0.78076922;stroke-miterlimit:4;stroke-dasharray:none" />
      <path
         d="m 8,12 a 1,1 0 0 0 1,1 h 6 a 1,1 0 0 0 0,-2 H 9 a 1,1 0 0 0 -1,1 z"
         id="path826"
         style="stroke:#000000;stroke-width:0.78076922;stroke-miterlimit:4;stroke-dasharray:none" />
      <path
         d="M 9,16 H 7.21 A 4.13,4.13 0 0 1 3,12.37 4,4 0 0 1 7,8 H 9 A 1,1 0 0 0 9,6 H 7.21 A 6.15,6.15 0 0 0 1.05,11.21 6,6 0 0 0 7,18 h 2 a 1,1 0 0 0 0,-2 z"
         id="path828"
         style="stroke:#000000;stroke-width:0.78076922;stroke-miterlimit:4;stroke-dasharray:none" />
      <path
         d="M 23,11.24 A 6.16,6.16 0 0 0 16.76,6 H 15.25 C 14.44,6 14,6.45 14,7 a 1,1 0 0 0 1,1 h 1.79 A 4.13,4.13 0 0 1 21,11.63 4,4 0 0 1 17,16 h -2 a 1,1 0 0 0 0,2 h 2 a 6,6 0 0 0 6,-6.76 z"
         id="path830"
         style="stroke:#000000;stroke-width:0.78076922;stroke-miterlimit:4;stroke-dasharray:none" />
    </g>
  </g>
</svg>
