<?xml version="1.0" encoding="UTF-8" standalone="no"?>
<!DOCTYPE svg PUBLIC "-//W3C//DTD SVG 1.1//EN" "http://www.w3.org/Graphics/SVG/1.1/DTD/svg11.dtd">
<svg width="100%" height="100%" viewBox="0 0 24 24" version="1.1" xmlns="http://www.w3.org/2000/svg" xmlns:xlink="http://www.w3.org/1999/xlink" xml:space="preserve" xmlns:serif="http://www.serif.com/" style="fill-rule:evenodd;clip-rule:evenodd;stroke-linejoin:round;stroke-miterlimit:2;">
    <g transform="matrix(0.843313,0,0,0.843313,2,6.95362)">
        <g id="Asset-Font-Symbols-All-Lowers" serif:id="Asset/Font-Symbols/All-Lowers">
            <g id="aa">
                <path id="Shape" d="M0.352,3.806C0.396,3.073 0.579,2.464 0.902,1.98C1.225,1.496 1.635,1.107 2.134,0.814C2.633,0.521 3.194,0.312 3.817,0.187C4.44,0.062 5.067,0 5.698,0C6.27,0 6.849,0.04 7.436,0.121C8.023,0.202 8.558,0.359 9.042,0.594C9.526,0.829 9.922,1.155 10.23,1.573C10.538,1.991 10.692,2.545 10.692,3.234L10.692,9.152C10.692,9.665 10.721,10.157 10.78,10.626C10.839,11.095 10.941,11.447 11.088,11.682L7.92,11.682C7.861,11.506 7.814,11.326 7.777,11.143C7.74,10.96 7.715,10.773 7.7,10.582C7.201,11.095 6.615,11.455 5.94,11.66C5.265,11.865 4.576,11.968 3.872,11.968C3.329,11.968 2.823,11.902 2.354,11.77C1.885,11.638 1.474,11.433 1.122,11.154C0.77,10.875 0.495,10.523 0.297,10.098C0.099,9.673 0,9.167 0,8.58C0,7.935 0.114,7.403 0.341,6.985C0.568,6.567 0.862,6.233 1.221,5.984C1.58,5.735 1.991,5.548 2.453,5.423C2.915,5.298 3.381,5.199 3.85,5.126C4.319,5.053 4.781,4.994 5.236,4.95C5.691,4.906 6.094,4.84 6.446,4.752C6.798,4.664 7.077,4.536 7.282,4.367C7.487,4.198 7.583,3.953 7.568,3.63C7.568,3.293 7.513,3.025 7.403,2.827C7.293,2.629 7.146,2.475 6.963,2.365C6.78,2.255 6.567,2.182 6.325,2.145C6.083,2.108 5.823,2.09 5.544,2.09C4.928,2.09 4.444,2.222 4.092,2.486C3.74,2.75 3.535,3.19 3.476,3.806L0.352,3.806ZM7.568,6.116C7.436,6.233 7.271,6.325 7.073,6.391C6.875,6.457 6.662,6.512 6.435,6.556C6.208,6.6 5.969,6.637 5.72,6.666C5.471,6.695 5.221,6.732 4.972,6.776C4.737,6.82 4.506,6.879 4.279,6.952C4.052,7.025 3.854,7.124 3.685,7.249C3.516,7.374 3.381,7.531 3.278,7.722C3.175,7.913 3.124,8.155 3.124,8.448C3.124,8.727 3.175,8.961 3.278,9.152C3.381,9.343 3.52,9.493 3.696,9.603C3.872,9.713 4.077,9.79 4.312,9.834C4.547,9.878 4.789,9.9 5.038,9.9C5.654,9.9 6.131,9.797 6.468,9.592C6.805,9.387 7.055,9.141 7.216,8.855C7.377,8.569 7.476,8.279 7.513,7.986C7.55,7.693 7.568,7.458 7.568,7.282L7.568,6.116Z" style="fill-rule:nonzero;"/>
                <path id="Shape1" serif:id="Shape" d="M12.98,3.806C13.024,3.073 13.207,2.464 13.53,1.98C13.853,1.496 14.263,1.107 14.762,0.814C15.261,0.521 15.822,0.312 16.445,0.187C17.068,0.062 17.695,0 18.326,0C18.898,0 19.477,0.04 20.064,0.121C20.651,0.202 21.186,0.359 21.67,0.594C22.154,0.829 22.55,1.155 22.858,1.573C23.166,1.991 23.32,2.545 23.32,3.234L23.32,9.152C23.32,9.665 23.349,10.157 23.408,10.626C23.467,11.095 23.569,11.447 23.716,11.682L20.548,11.682C20.489,11.506 20.442,11.326 20.405,11.143C20.368,10.96 20.343,10.773 20.328,10.582C19.829,11.095 19.243,11.455 18.568,11.66C17.893,11.865 17.204,11.968 16.5,11.968C15.957,11.968 15.451,11.902 14.982,11.77C14.513,11.638 14.102,11.433 13.75,11.154C13.398,10.875 13.123,10.523 12.925,10.098C12.727,9.673 12.628,9.167 12.628,8.58C12.628,7.935 12.742,7.403 12.969,6.985C13.196,6.567 13.49,6.233 13.849,5.984C14.208,5.735 14.619,5.548 15.081,5.423C15.543,5.298 16.009,5.199 16.478,5.126C16.947,5.053 17.409,4.994 17.864,4.95C18.319,4.906 18.722,4.84 19.074,4.752C19.426,4.664 19.705,4.536 19.91,4.367C20.115,4.198 20.211,3.953 20.196,3.63C20.196,3.293 20.141,3.025 20.031,2.827C19.921,2.629 19.774,2.475 19.591,2.365C19.408,2.255 19.195,2.182 18.953,2.145C18.711,2.108 18.451,2.09 18.172,2.09C17.556,2.09 17.072,2.222 16.72,2.486C16.368,2.75 16.163,3.19 16.104,3.806L12.98,3.806ZM20.196,6.116C20.064,6.233 19.899,6.325 19.701,6.391C19.503,6.457 19.29,6.512 19.063,6.556C18.836,6.6 18.597,6.637 18.348,6.666C18.099,6.695 17.849,6.732 17.6,6.776C17.365,6.82 17.134,6.879 16.907,6.952C16.68,7.025 16.482,7.124 16.313,7.249C16.144,7.374 16.009,7.531 15.906,7.722C15.803,7.913 15.752,8.155 15.752,8.448C15.752,8.727 15.803,8.961 15.906,9.152C16.009,9.343 16.148,9.493 16.324,9.603C16.5,9.713 16.705,9.79 16.94,9.834C17.175,9.878 17.417,9.9 17.666,9.9C18.282,9.9 18.759,9.797 19.096,9.592C19.433,9.387 19.683,9.141 19.844,8.855C20.005,8.569 20.104,8.279 20.141,7.986C20.178,7.693 20.196,7.458 20.196,7.282L20.196,6.116Z" style="fill-rule:nonzero;"/>
            </g>
        </g>
    </g>
</svg>
