<?xml version="1.0" encoding="utf-8"?>
<!-- Generator: Adobe Illustrator 27.1.1, SVG Export Plug-In . SVG Version: 6.00 Build 0)  -->
<svg version="1.1" id="Layer_1" xmlns="http://www.w3.org/2000/svg" xmlns:xlink="http://www.w3.org/1999/xlink" x="0px" y="0px"
	 viewBox="0 0 24 24" style="enable-background:new 0 0 24 24;" xml:space="preserve">
<g id="Asset_x2F_Font-Symbols_x2F_Mono">
	<g id="Aa" transform="translate(2.244000, 7.200000)">
		<path id="Shape" d="M6.7,7.8H3.1l-0.8,2.7h-2.4L3.8-1.6h2.4L10,10.5H7.5L6.7,7.8z M3.6,5.9h2.6L5,1.8H4.8L3.6,5.9z"/>
		<path id="Shape_00000034066659639323085470000000723782765273627805_" d="M11.7,2.4c0.5-0.2,1-0.4,1.6-0.5
			c0.6-0.2,1.3-0.2,2.2-0.2c0.6,0,1.1,0.1,1.5,0.2c0.4,0.1,0.8,0.3,1,0.6c0.3,0.3,0.4,0.6,0.6,1c0.1,0.4,0.2,0.8,0.2,1.2
			c0,0.6,0,1.1-0.1,1.5c0,0.4-0.1,0.8-0.1,1.1c0,0.2,0,0.5,0,0.8c0,0.2,0,0.3,0.1,0.5h1.1v1.9H17l-0.2-1.2h-0.1
			c-0.2,0.4-0.6,0.7-1,0.9s-1,0.4-1.7,0.4c-0.9,0-1.6-0.2-2.1-0.7c-0.5-0.5-0.8-1.1-0.8-1.8c0-0.5,0.1-0.9,0.3-1.3
			c0.2-0.4,0.4-0.6,0.8-0.9c0.3-0.2,0.8-0.4,1.2-0.5c0.5-0.1,1-0.2,1.6-0.2c0.2,0,0.4,0,0.7,0c0.2,0,0.5,0,0.8,0.1
			c0-0.1,0-0.2,0-0.3V4.7c0-0.4-0.1-0.8-0.4-0.9S15.5,3.5,15,3.5c-0.6,0-1.1,0.1-1.6,0.2C13,3.9,12.6,4,12.2,4.2L11.7,2.4z
			 M14.7,8.8c0.6,0,1-0.1,1.2-0.3c0.3-0.2,0.5-0.4,0.6-0.6v-1c-0.1,0-0.3,0-0.5-0.1c-0.2,0-0.5,0-0.7,0c-0.2,0-0.4,0-0.7,0.1
			c-0.2,0-0.4,0.1-0.6,0.2c-0.2,0.1-0.3,0.2-0.4,0.3c-0.1,0.1-0.2,0.3-0.2,0.5c0,0.3,0.1,0.6,0.3,0.8C13.9,8.7,14.2,8.8,14.7,8.8z"
			/>
	</g>
</g>
</svg>
