<?xml version="1.0" encoding="UTF-8" standalone="no"?>
<svg
   viewBox="0 0 24 24"
   version="1.1"
   id="svg3639"
   sodipodi:docname="play-circle.svg"
   inkscape:version="1.1 (c4e8f9e, 2021-05-24)"
   xmlns:inkscape="http://www.inkscape.org/namespaces/inkscape"
   xmlns:sodipodi="http://sodipodi.sourceforge.net/DTD/sodipodi-0.dtd"
   xmlns="http://www.w3.org/2000/svg"
   xmlns:svg="http://www.w3.org/2000/svg">
  <defs
     id="defs3643" />
  <sodipodi:namedview
     id="namedview3641"
     pagecolor="#505050"
     bordercolor="#ffffff"
     borderopacity="1"
     inkscape:pageshadow="0"
     inkscape:pageopacity="0"
     inkscape:pagecheckerboard="1"
     showgrid="false"
     inkscape:zoom="29"
     inkscape:cx="12"
     inkscape:cy="12"
     inkscape:window-width="2560"
     inkscape:window-height="1307"
     inkscape:window-x="3440"
     inkscape:window-y="25"
     inkscape:window-maximized="1"
     inkscape:current-layer="g3635" />
  <g
     data-name="Layer 2"
     id="g3637">
    <g
       data-name="play-circle"
       id="g3635">
      <rect
         width="24"
         height="24"
         opacity="0"
         id="rect3629" />
      <path
         d="M 12,2 C 3.0903319,2 -1.3700317,12.771386 4.9292914,19.070709 11.228614,25.370032 22,20.909668 22,12 22,6.4771525 17.522847,2 12,2 Z m 3.62069,11.111034 -3.64,3.37 c -0.317987,0.287846 -0.731086,0.4481 -1.16,0.45 -0.23803,-5.54e-4 -0.473224,-0.05168 -0.69,-0.15 -0.603307,-0.244048 -0.998682,-0.829203 -1.0000003,-1.48 V 8.5610345 c 0.00132,-0.6507969 0.3966933,-1.235952 1.0000003,-1.48 0.621081,-0.2796476 1.349118,-0.1615875 1.85,0.3 l 3.64,3.3699995 c 0.692592,0.634224 0.692592,1.725776 0,2.36 z"
         id="path3633"
         sodipodi:nodetypes="sssscccccccccc" />
    </g>
  </g>
</svg>
