<?xml version="1.0" encoding="utf-8"?>
<!-- Generator: Adobe Illustrator 27.1.1, SVG Export Plug-In . SVG Version: 6.00 Build 0)  -->
<svg version="1.1" id="Layer_1" xmlns="http://www.w3.org/2000/svg" xmlns:xlink="http://www.w3.org/1999/xlink" x="0px" y="0px"
	 viewBox="0 0 24 24" style="enable-background:new 0 0 24 24;" xml:space="preserve">
<g id="Asset_x2F_Font-Symbols_x2F_Sans-Serif">
	<g id="Aa" transform="translate(2.500000, 8.292000)">
		<path id="Shape" d="M3.7,5.2l1.5-4.3h0l1.5,4.3H3.7z M3.9-1.9L-0.5,9.7h2.6L3,7.1h4.4l0.9,2.6h2.7L6.5-1.9H3.9z"/>
		<path id="Shape_00000008855460149066124120000009483740845357303996_" d="M11.5,3.9c0-0.5,0.2-1,0.4-1.4c0.2-0.4,0.5-0.6,0.9-0.9
			c0.4-0.2,0.8-0.4,1.2-0.5s0.9-0.1,1.4-0.1c0.4,0,0.9,0,1.3,0.1c0.4,0.1,0.8,0.2,1.2,0.4c0.4,0.2,0.7,0.4,0.9,0.7s0.3,0.7,0.3,1.2
			v4.4c0,0.4,0,0.7,0.1,1.1c0,0.3,0.1,0.6,0.2,0.8h-2.3c0-0.1-0.1-0.3-0.1-0.4S17,9,17,8.9c-0.4,0.4-0.8,0.6-1.3,0.8
			c-0.5,0.2-1,0.2-1.5,0.2c-0.4,0-0.8,0-1.1-0.1c-0.3-0.1-0.7-0.2-0.9-0.5c-0.3-0.2-0.5-0.5-0.6-0.8c-0.1-0.3-0.2-0.7-0.2-1.1
			c0-0.5,0.1-0.9,0.3-1.2c0.2-0.3,0.4-0.6,0.7-0.7c0.3-0.2,0.6-0.3,0.9-0.4c0.3-0.1,0.7-0.2,1-0.2c0.3-0.1,0.7-0.1,1-0.1
			c0.3,0,0.6-0.1,0.9-0.1c0.3-0.1,0.5-0.2,0.6-0.3c0.2-0.1,0.2-0.3,0.2-0.5c0-0.2,0-0.4-0.1-0.6c-0.1-0.1-0.2-0.3-0.3-0.3
			c-0.1-0.1-0.3-0.1-0.5-0.2c-0.2,0-0.4,0-0.6,0c-0.5,0-0.8,0.1-1.1,0.3c-0.3,0.2-0.4,0.5-0.5,1H11.5z M16.9,5.6
			c-0.1,0.1-0.2,0.2-0.4,0.2c-0.1,0-0.3,0.1-0.5,0.1c-0.2,0-0.3,0.1-0.5,0.1c-0.2,0-0.4,0-0.6,0.1c-0.2,0-0.3,0.1-0.5,0.1
			c-0.2,0.1-0.3,0.1-0.4,0.2c-0.1,0.1-0.2,0.2-0.3,0.4c-0.1,0.1-0.1,0.3-0.1,0.5c0,0.2,0,0.4,0.1,0.5C13.8,8,13.9,8.1,14,8.2
			c0.1,0.1,0.3,0.1,0.5,0.2c0.2,0,0.4,0,0.5,0c0.5,0,0.8-0.1,1.1-0.2c0.2-0.2,0.4-0.3,0.6-0.5c0.1-0.2,0.2-0.4,0.2-0.6
			c0-0.2,0-0.4,0-0.5V5.6z"/>
	</g>
</g>
</svg>
