<?xml version="1.0" encoding="utf-8"?>
<!-- Generator: Adobe Illustrator 27.1.1, SVG Export Plug-In . SVG Version: 6.00 Build 0)  -->
<svg version="1.1" id="Layer_1" xmlns="http://www.w3.org/2000/svg" xmlns:xlink="http://www.w3.org/1999/xlink" x="0px" y="0px"
	 viewBox="0 0 24 24" style="enable-background:new 0 0 24 24;" xml:space="preserve">
<g id="Asset_x2F_Font-Symbols_x2F_Serif">
	<g id="Aa" transform="translate(1.437500, 7.781250)">
		<path id="Shape" d="M7.2,6.6H3.3L2.8,7.7C2.7,8.1,2.6,8.4,2.6,8.6c0,0.3,0.1,0.5,0.4,0.7c0.1,0.1,0.5,0.2,1.1,0.2v0.3H0.4V9.5
			c0.4-0.1,0.7-0.2,1-0.5s0.6-0.8,0.9-1.7l4-8.8h0.2l4,9.1c0.4,0.9,0.7,1.4,0.9,1.6c0.2,0.2,0.4,0.3,0.8,0.3v0.3H6.8V9.5H7
			c0.4,0,0.7-0.1,0.9-0.2C8,9.2,8.1,9.1,8.1,8.9c0-0.1,0-0.2,0-0.3c0,0-0.1-0.3-0.2-0.6L7.2,6.6z M6.9,6L5.3,2.2L3.6,6H6.9z"/>
		<path id="Shape_00000090274368852418123980000011767545630922806670_" d="M17.1,8.6c-0.9,0.8-1.8,1.2-2.5,1.2
			c-0.4,0-0.8-0.1-1.1-0.4c-0.3-0.3-0.4-0.6-0.4-1.1c0-0.6,0.3-1.1,0.8-1.6c0.5-0.5,1.6-1.1,3.3-1.9V4.2c0-0.6,0-0.9-0.1-1.1
			c-0.1-0.1-0.2-0.3-0.4-0.4S16.3,2.5,16,2.5c-0.4,0-0.6,0.1-0.9,0.2C15,2.9,15,3,15,3.1c0,0.1,0.1,0.3,0.2,0.4
			c0.2,0.2,0.3,0.5,0.3,0.7c0,0.3-0.1,0.5-0.3,0.7s-0.5,0.3-0.8,0.3c-0.3,0-0.6-0.1-0.9-0.3c-0.2-0.2-0.3-0.4-0.3-0.7
			c0-0.4,0.2-0.8,0.5-1.1s0.7-0.6,1.3-0.8c0.6-0.2,1.1-0.3,1.7-0.3c0.7,0,1.3,0.2,1.7,0.5c0.4,0.3,0.7,0.6,0.8,1
			c0.1,0.2,0.1,0.8,0.1,1.6v3c0,0.3,0,0.6,0,0.7c0,0.1,0.1,0.2,0.1,0.2c0.1,0,0.1,0.1,0.2,0.1c0.1,0,0.3-0.1,0.4-0.3l0.2,0.2
			c-0.3,0.4-0.6,0.7-0.8,0.9s-0.6,0.3-1,0.3c-0.4,0-0.8-0.1-1-0.3C17.3,9.4,17.1,9.1,17.1,8.6z M17.1,8.1V5.5
			c-0.7,0.4-1.1,0.8-1.5,1.2c-0.2,0.3-0.3,0.6-0.3,0.9c0,0.3,0.1,0.5,0.3,0.7c0.1,0.1,0.3,0.2,0.6,0.2C16.4,8.5,16.7,8.4,17.1,8.1z"
			/>
	</g>
</g>
</svg>
