<?xml version="1.0" encoding="UTF-8" standalone="no"?>
<!DOCTYPE svg PUBLIC "-//W3C//DTD SVG 1.1//EN" "http://www.w3.org/Graphics/SVG/1.1/DTD/svg11.dtd">
<svg width="100%" height="100%" viewBox="0 0 24 24" version="1.1" xmlns="http://www.w3.org/2000/svg" xmlns:xlink="http://www.w3.org/1999/xlink" xml:space="preserve" xmlns:serif="http://www.serif.com/" style="fill-rule:evenodd;clip-rule:evenodd;stroke-linejoin:round;stroke-miterlimit:2;">
    <g transform="matrix(0.919422,0,0,0.919422,0.966933,0.801495)">
        <g>
            <g transform="matrix(0.925714,0,0,0.925714,0.891428,1.48897)">
                <path d="M8.286,7.519C8.883,7.519 9.367,8.003 9.367,8.599C9.367,9.195 8.883,9.679 8.286,9.679L6.73,9.679C5.831,9.679 5.106,10.404 5.106,11.304L5.106,19.146C5.106,20.046 5.831,20.771 6.73,20.771L17.27,20.771C18.169,20.771 18.894,20.046 18.894,19.146L18.894,11.304C18.894,10.404 18.169,9.679 17.27,9.679L15.733,9.679C15.137,9.679 14.653,9.195 14.653,8.599C14.653,8.003 15.137,7.519 15.733,7.519L17.27,7.519C19.366,7.519 21.055,9.208 21.055,11.304L21.055,19.146C21.055,21.243 19.366,22.931 17.27,22.931L6.73,22.931C4.634,22.931 2.945,21.243 2.945,19.146L2.945,11.304C2.945,9.208 4.634,7.519 6.73,7.519L8.286,7.519Z"/>
            </g>
            <g transform="matrix(1,0,0,1,-2e-07,0.242392)">
                <path d="M11.348,1.635C11.227,1.736 11.394,1.602 11.394,1.602L11.485,1.546L11.509,1.532L11.588,1.49L11.631,1.47C11.708,1.44 11.789,1.419 11.871,1.409L11.876,1.408C12.043,1.388 12.212,1.409 12.368,1.47C12.383,1.475 12.397,1.482 12.412,1.49L12.491,1.532C12.499,1.537 12.507,1.541 12.515,1.546L12.606,1.602C12.626,1.614 12.643,1.627 12.658,1.64C12.662,1.643 12.666,1.647 12.67,1.65L16.519,4.855C16.752,5.049 16.887,5.337 16.887,5.64C16.887,6.199 16.426,6.66 15.866,6.66C15.628,6.66 15.396,6.576 15.213,6.424L13.02,4.598L13.02,14.941C13.02,15.497 12.569,15.947 12.014,15.947L11.986,15.947C11.431,15.947 10.98,15.497 10.98,14.941L10.98,4.598L8.787,6.423C8.604,6.576 8.373,6.66 8.134,6.66C7.832,6.66 7.545,6.526 7.351,6.294C7.197,6.111 7.113,5.879 7.113,5.639C7.113,5.336 7.248,5.048 7.481,4.855L11.348,1.635Z"/>
            </g>
        </g>
    </g>
</svg>
