<?xml version="1.0" encoding="UTF-8" standalone="no"?>
<svg
   viewBox="0 0 24 24"
   version="1.1"
   id="svg2416"
   sodipodi:docname="share.svg"
   inkscape:version="1.1 (c4e8f9e, 2021-05-24)"
   xmlns:inkscape="http://www.inkscape.org/namespaces/inkscape"
   xmlns:sodipodi="http://sodipodi.sourceforge.net/DTD/sodipodi-0.dtd"
   xmlns="http://www.w3.org/2000/svg"
   xmlns:svg="http://www.w3.org/2000/svg">
  <defs
     id="defs2420" />
  <sodipodi:namedview
     id="namedview2418"
     pagecolor="#505050"
     bordercolor="#ffffff"
     borderopacity="1"
     inkscape:pageshadow="0"
     inkscape:pageopacity="0"
     inkscape:pagecheckerboard="1"
     showgrid="false"
     inkscape:snap-page="false"
     inkscape:snap-text-baseline="true"
     inkscape:snap-object-midpoints="true"
     inkscape:snap-center="true"
     inkscape:snap-smooth-nodes="true"
     inkscape:snap-midpoints="true"
     inkscape:snap-intersection-paths="true"
     inkscape:object-paths="true"
     inkscape:snap-bbox="true"
     inkscape:bbox-paths="true"
     inkscape:bbox-nodes="true"
     inkscape:snap-bbox-edge-midpoints="true"
     inkscape:snap-bbox-midpoints="true"
     inkscape:snap-global="true"
     inkscape:zoom="40.433577"
     inkscape:cx="10.325577"
     inkscape:cy="12.019713"
     inkscape:window-width="2560"
     inkscape:window-height="1305"
     inkscape:window-x="3440"
     inkscape:window-y="25"
     inkscape:window-maximized="0"
     inkscape:current-layer="g4330" />
  <rect
     width="24"
     height="24"
     transform="rotate(90)"
     opacity="0"
     id="rect2583"
     x="0.061616"
     y="-24" />
  <g
     id="g4342">
    <g
       id="g4330"
       transform="translate(0,-0.93981297)">
      <g
         data-name="arrow-upward"
         id="g2991"
         transform="matrix(0.64437009,0,0,0.64437009,4.2676636,-0.00202795)"
         style="stroke:#000000;stroke-width:0.775952" />
      <g
         id="g4440"
         transform="translate(0,0.38072979)">
        <path
           id="rect2581"
           style="fill:#000000;stroke-width:2;stroke-linecap:round;stroke-linejoin:round"
           d="m 6.7304688,7.9859682 c -1.4981395,0 -2.7050782,1.2069388 -2.7050782,2.7050778 v 8.455079 c 0,1.498139 1.2069387,2.705078 2.7050782,2.705078 H 17.269531 c 1.49814,0 2.705078,-1.206939 2.705078,-2.705078 v -8.455079 c 0,-1.498139 -1.206938,-2.7050778 -2.705078,-2.7050778 h -4.375 V 14.767218 A 0.89453125,0.89453125 0 0 1 12,15.661749 0.89453125,0.89453125 0 0 1 11.105469,14.767218 V 7.9859682 Z"
           transform="translate(0,0.93981297)" />
        <g
           id="g4431">
          <g
             id="path3588"
             transform="translate(0.2285152,-0.93599943)"
             style="stroke:#000000;stroke-width:0.775952">
            <path
               style="color:#000000;fill:#000000;stroke:none;stroke-width:0.5;-inkscape-stroke:none"
               d="m 11.693359,3.5175781 a 0.64437009,0.64437009 0 0 0 -0.154297,0.039063 l -0.08398,0.044922 -0.0957,0.058594 -3.8671875,3.2207032 a 0.64437009,0.64437009 0 0 0 -0.082031,0.9101562 0.64437009,0.64437009 0 0 0 0.9082032,0.082031 L 11.126953,5.5351562 v 3.390625 h 1.289063 v -3.390625 l 2.808593,2.3378907 a 0.64556104,0.64556104 0 1 0 0.826172,-0.9921875 l -3.867187,-3.2207032 -0.0957,-0.058594 -0.08399,-0.044922 a 0.64437009,0.64437009 0 0 0 -0.310547,-0.039063 z"
               id="path3777" />
            <path
               style="color:#000000;fill:#000000;stroke:none;-inkscape-stroke:none"
               d="m 11.662109,3.2695313 c -0.07335,0.00915 -0.144019,0.027834 -0.21289,0.054687 l -0.01563,0.00586 -0.103516,0.054687 -0.117187,0.072266 -3.8808598,3.2324218 C 6.9527252,7.0042273 6.9018396,7.5736487 7.21875,7.9511719 7.5333305,8.328747 8.1013714,8.37955 8.4785156,8.0644531 L 10.876953,6.0683594 v 3.1074219 h 1.789063 V 6.0683594 l 2.398437,1.9960937 c 0.213388,0.1777192 0.47088,0.2453797 0.699219,0.2109375 0.228339,-0.034442 0.423676,-0.1594516 0.5625,-0.3261719 C 16.464996,7.7824985 16.550426,7.5686943 16.542969,7.3378906 16.535512,7.107087 16.424325,6.8671723 16.210937,6.6894531 L 12.330078,3.4570313 12.212891,3.3847656 12.109375,3.328125 12.09375,3.3242188 c -0.137029,-0.05322 -0.283747,-0.072313 -0.429687,-0.054687 z m 0.06055,0.4960937 h 0.002 c 0.06115,-0.00708 0.123884,0.00231 0.181641,0.023437 l 0.05664,0.029297 0.07422,0.044922 3.853516,3.2089843 c 0.117347,0.097732 0.149341,0.1882932 0.152344,0.28125 0.003,0.092957 -0.03384,0.1960174 -0.101563,0.2773438 -0.06772,0.081326 -0.160017,0.1365232 -0.251953,0.1503906 -0.09193,0.013867 -0.187341,-0.00188 -0.304687,-0.099609 L 12.166016,5.0019531 V 8.6757813 H 11.376953 V 5.0019531 L 8.1582031,7.6816406 C 7.988614,7.8233292 7.7430188,7.8006423 7.6015625,7.6308594 7.4590297,7.4610655 7.481748,7.2157908 7.6523437,7.0742187 v -0.00195 l 3.8535153,-3.2089843 0.07422,-0.044922 0.05859,-0.03125 c 0.02695,-0.00974 0.05555,-0.017798 0.08398,-0.021484 z"
               id="path3779" />
          </g>
          <rect
             style="fill:#000000;stroke:#000000;stroke-width:0;stroke-linecap:round;stroke-linejoin:round;stroke-miterlimit:4;stroke-dasharray:none"
             id="rect4240"
             width="1.7890623"
             height="0.68599927"
             x="11.105469"
             y="8.2397823"
             rx="0.037153099" />
        </g>
      </g>
    </g>
  </g>
</svg>
