<?xml version="1.0" encoding="UTF-8" standalone="no"?>
<!DOCTYPE svg PUBLIC "-//W3C//DTD SVG 1.1//EN" "http://www.w3.org/Graphics/SVG/1.1/DTD/svg11.dtd">
<svg width="100%" height="100%" viewBox="0 0 24 24" version="1.1" xmlns="http://www.w3.org/2000/svg" xmlns:xlink="http://www.w3.org/1999/xlink" xml:space="preserve" xmlns:serif="http://www.serif.com/" style="fill-rule:evenodd;clip-rule:evenodd;stroke-linejoin:round;stroke-miterlimit:2;">
    <g transform="matrix(1.35339,0,0,1.35339,-4.24071,-4.24071)">
        <g transform="matrix(1,0,0,1.32008,0.103872,-3.65249)">
            <path d="M18.786,9.45C18.786,9.124 18.615,8.811 18.31,8.58C18.005,8.349 17.592,8.219 17.16,8.219C14.509,8.219 9.283,8.219 6.632,8.219C6.201,8.219 5.787,8.349 5.482,8.58C5.178,8.811 5.006,9.124 5.006,9.45C5.006,10.791 5.006,12.923 5.006,14.264C5.006,14.591 5.178,14.904 5.482,15.135C5.787,15.366 6.201,15.496 6.632,15.496C9.283,15.496 14.509,15.496 17.16,15.496C17.592,15.496 18.005,15.366 18.31,15.135C18.615,14.904 18.786,14.591 18.786,14.264C18.786,12.923 18.786,10.791 18.786,9.45Z" style="fill-opacity:0.4;"/>
        </g>
        <g transform="matrix(1,0,0,0.760354,-0.378282,1.70123)">
            <path d="M9.804,7.228C10.162,7.228 10.454,7.611 10.454,8.083C10.454,8.555 10.162,8.938 9.804,8.938C9.804,8.938 8.441,8.938 7.547,8.938C7.346,8.938 7.153,9.043 7.011,9.23C6.868,9.418 6.788,9.672 6.788,9.936C6.788,11.555 6.788,14.572 6.788,14.572C6.788,15.044 6.497,15.427 6.138,15.427C5.78,15.427 5.488,15.044 5.488,14.572C5.488,14.572 5.488,11.506 5.488,9.336C5.488,8.777 5.657,8.241 5.958,7.846C6.259,7.45 6.666,7.228 7.091,7.228C8.319,7.228 9.804,7.228 9.804,7.228Z"/>
        </g>
        <g transform="matrix(-1,1.22465e-16,-9.31165e-17,-0.760354,24.3783,22.2988)">
            <path d="M9.804,7.228C10.162,7.228 10.454,7.611 10.454,8.083C10.454,8.555 10.162,8.938 9.804,8.938C9.804,8.938 8.456,8.938 7.562,8.938C7.135,8.938 6.788,9.394 6.788,9.956C6.788,11.579 6.788,14.572 6.788,14.572C6.788,15.044 6.497,15.427 6.138,15.427C5.78,15.427 5.488,15.044 5.488,14.572L5.488,9.386C5.488,8.194 6.223,7.228 7.129,7.228C8.349,7.228 9.804,7.228 9.804,7.228Z"/>
        </g>
    </g>
</svg>
