<?xml version="1.0" encoding="utf-8"?>
<!-- Generator: Adobe Illustrator 27.1.1, SVG Export Plug-In . SVG Version: 6.00 Build 0)  -->
<svg version="1.1" id="Layer_1" xmlns="http://www.w3.org/2000/svg" xmlns:xlink="http://www.w3.org/1999/xlink" x="0px" y="0px"
	 viewBox="0 0 24 24" style="enable-background:new 0 0 24 24;" xml:space="preserve">
<path id="Combined-Shape" d="M17.6,15.4c0,1.3-0.5,2.4-1.5,3.3s-2.3,1.4-3.9,1.4c-0.5,0-0.9-0.1-1.4-0.2c-0.4-0.1-0.9-0.3-1.7-0.6
	c-0.4-0.2-0.7-0.2-0.9-0.2s-0.4,0.2-0.6,0.3c-0.2,0.2-0.4,0.4-0.5,0.7H6.7v-5.9h0.4c0.3,1.7,0.9,2.8,2,3.8s2,1.3,3,1.3
	c0.9,0,1.6-0.2,2.1-0.7c0.5-0.5,0.8-0.9,0.8-1.6c0-0.4-0.1-0.7-0.3-1c-0.2-0.3-0.5-0.7-0.9-0.9c-0.4-0.3-1-0.7-2.1-1.1
	c-0.1-0.1-0.2-0.1-0.3-0.2h5.9C17.5,14.2,17.6,14.8,17.6,15.4z M16.6,4l0.1,5.1h-0.5c-0.2-1.3-0.8-2.4-1.6-3.1
	c-0.9-0.8-1.8-1.1-2.8-1.1c-0.8,0-1.4,0.2-1.9,0.6C9.5,5.8,9.1,6.4,9.1,6.9c0,0.3,0.1,0.7,0.2,0.9c0.2,0.4,0.6,0.7,1,1
	c0.4,0.2,0.8,0.4,1.5,0.7H7C6.8,9.3,6.7,8.9,6.7,8.4c0-1.1,0.5-2.3,1.4-3.1c0.9-0.9,2.1-1.3,3.4-1.3c0.5,0,0.9,0.1,1.5,0.2
	c0.4,0.1,0.8,0.3,1.3,0.5c0.5,0.2,0.9,0.4,1,0.4c0.2,0,0.4-0.1,0.5-0.2s0.2-0.4,0.3-0.9h0.4V4z"/>
<g id="Rectangle">
	<path d="M21.6,12.5h-19c-0.5,0-0.9-0.4-0.9-0.9s0.4-0.9,0.9-0.9h19.1c0.5,0,0.9,0.4,0.9,0.9C22.6,12.1,22.2,12.5,21.6,12.5z"/>
</g>
</svg>
