<?xml version="1.0" encoding="utf-8"?>
<!-- Generator: Adobe Illustrator 27.1.1, SVG Export Plug-In . SVG Version: 6.00 Build 0)  -->
<svg version="1.1" id="Layer_1" xmlns="http://www.w3.org/2000/svg" xmlns:xlink="http://www.w3.org/1999/xlink" x="0px" y="0px"
	 viewBox="0 0 24 24" style="enable-background:new 0 0 24 24;" xml:space="preserve">
<style type="text/css">
	.st0{fill-rule:evenodd;clip-rule:evenodd;}
</style>
<g>
	<g id="U" transform="translate(3.695312, 0.000000)">
		<path id="Path" d="M1.2,5.2h7.5v0.4H8.4c-0.6,0.1-1,0.1-1.2,0.3C6.9,5.9,6.9,6,6.8,6.2S6.6,6.9,6.6,7.8v7.2c0,1.3,0.1,2.2,0.3,2.6
			c0.2,0.4,0.5,0.8,1,1.1c0.4,0.3,1,0.4,1.7,0.4c0.8,0,1.4-0.2,2.1-0.5c0.5-0.4,1-0.8,1.3-1.4c0.3-0.6,0.4-1.7,0.4-3.2V7.8
			c0-0.6-0.1-1.1-0.2-1.4C13,6.1,12.8,6,12.5,5.8c-0.4-0.2-0.8-0.3-1.3-0.3V5.2h5v0.4h-0.3c-0.4,0-0.7,0.1-1,0.3
			c-0.3,0.2-0.4,0.4-0.6,0.7c-0.1,0.3-0.2,0.6-0.2,1.3v5.6c0,1.7-0.1,3-0.4,3.7c-0.3,0.7-0.8,1.4-1.6,2.1c-0.9,0.6-2.1,1-3.6,1
			c-1.3,0-2.2-0.2-3-0.5c-0.9-0.4-1.6-1.1-2-1.8S3.1,16,3.1,14.9V7.7c0-0.8-0.1-1.3-0.2-1.5C2.8,6,2.7,5.9,2.5,5.8
			C2.2,5.6,1.8,5.6,1.2,5.6V5.2z"/>
	</g>
	<path class="st0" d="M3.2,18.8"/>
	<g>
		<path d="M7.5,20.1H3c-0.4,0-0.7-0.4-0.7-0.7c0-0.4,0.3-0.7,0.7-0.7h3.2l0.1,0.2c0.2,0.2,0.4,0.4,0.5,0.6L7.5,20.1z"/>
	</g>
	<g>
		<path d="M21,20.1h-4l0.6-0.6c0.2-0.2,0.4-0.4,0.5-0.6l0.1-0.2h2.7c0.4,0,0.7,0.4,0.7,0.7S21.4,20.1,21,20.1z"/>
	</g>
</g>
</svg>
