<?xml version="1.0" encoding="UTF-8" standalone="no"?>
<!DOCTYPE svg PUBLIC "-//W3C//DTD SVG 1.1//EN" "http://www.w3.org/Graphics/SVG/1.1/DTD/svg11.dtd">
<svg width="100%" height="100%" viewBox="0 0 994 159" version="1.1" xmlns="http://www.w3.org/2000/svg" xmlns:xlink="http://www.w3.org/1999/xlink" xml:space="preserve" xmlns:serif="http://www.serif.com/" style="fill-rule:evenodd;clip-rule:evenodd;stroke-linejoin:round;stroke-miterlimit:2;">
    <g transform="matrix(0.879337,0,0,0.442729,277.077,-151.785)">
        <rect id="Artboard1" x="-315.097" y="342.84" width="1130.06" height="357.555" style="fill:none;"/>
        <clipPath id="_clip1">
            <rect id="Artboard11" serif:id="Artboard1" x="-315.097" y="342.84" width="1130.06" height="357.555"/>
        </clipPath>
        <g clip-path="url(#_clip1)">
            <g>
                <g>
                    <g transform="matrix(0.637767,0,0,1.26703,-517.339,776.165)">
                        <g id="path1668" transform="matrix(1,0,0,1,316,-342)">
                            <path d="M56.445,4.147C54.352,3.047 51.907,2.824 49.649,3.527C47.391,4.229 45.504,5.8 44.405,7.893C34.468,26.807 9.57,74.202 2.131,88.362C0.794,90.909 0.767,93.944 2.06,96.513C13.858,119.959 72.781,237.059 85.613,262.56C87.127,265.569 90.208,267.468 93.577,267.468C95.359,267.468 97.36,267.468 99.235,267.468C103.344,267.468 106.921,264.66 107.896,260.669C114.58,233.309 139.293,132.155 142.187,120.307C142.371,119.553 142.456,118.779 142.44,118.004C142.281,110.478 141.396,68.682 141.081,53.807C141.013,50.564 139.187,47.614 136.315,46.105C121.465,38.304 75.102,13.948 56.445,4.147Z" style="fill:white;fill-rule:nonzero;"/>
                        </g>
                        <g id="path1670" transform="matrix(1,0,0,1,316,-342)">
                            <path d="M199.219,267.468C201.709,267.468 204.085,266.427 205.773,264.597C222.581,246.374 314.311,146.92 333.415,126.208C335.573,123.869 336.319,120.556 335.374,117.518C329.574,98.88 308.875,32.363 301.481,8.603C300.779,6.346 299.208,4.46 297.114,3.36C295.021,2.261 292.576,2.038 290.318,2.74C266.516,10.147 199.816,30.903 181.31,36.662C178.323,37.591 176.041,40.019 175.299,43.057C168.358,71.468 133.226,215.268 123.168,256.439C122.518,259.097 123.126,261.906 124.816,264.059C126.506,266.211 129.092,267.468 131.829,267.468C150.601,267.468 187.224,267.468 199.219,267.468Z" style="fill:white;fill-rule:nonzero;"/>
                        </g>
                    </g>
                    <g transform="matrix(1.18664,0,0,0.651764,-1.15777,397.244)">
                        <path d="M-1.535,363.025L-17.609,363.025L18.499,0L35.984,0L72.092,363.025L56.018,363.025L27.634,65.94L26.85,65.94L-1.535,363.025ZM1.131,220.936L53.273,220.936L53.273,266.882L1.131,266.882L1.131,220.936Z" style="fill:white;fill-rule:nonzero;"/>
                        <path d="M77.949,363.025L77.949,90.756L92.024,90.756L92.024,135.143L92.965,135.143C94.533,120.111 97.095,108.364 100.649,99.903C104.204,91.442 108.464,87.211 113.43,87.211C118.461,87.211 122.686,91.459 126.103,99.956C129.521,108.452 132.053,120.181 133.699,135.143L134.484,135.143C136.28,120.56 139.136,108.925 143.05,100.239C146.964,91.554 151.636,87.211 157.066,87.211C163.894,87.211 169.469,94.963 173.791,110.468C178.114,125.972 180.275,149.323 180.275,180.521L180.275,363.025L165.612,363.025L165.612,185.484C165.612,167.025 164.23,153.666 161.466,145.406C158.703,137.146 155.393,133.016 151.538,133.016C146.748,133.016 143.028,138.304 140.379,148.88C137.73,159.457 136.405,172.981 136.405,189.453L136.405,363.025L121.82,363.025L121.82,182.08C121.82,167.309 120.543,155.438 117.988,146.469C115.433,137.5 112.123,133.016 108.059,133.016C105.282,133.016 102.721,135.639 100.375,140.886C98.029,146.132 96.149,153.417 94.734,162.741C93.32,172.065 92.612,182.859 92.612,195.125L92.612,363.025L77.949,363.025Z" style="fill:white;fill-rule:nonzero;"/>
                        <path d="M224.859,368.556C217.45,368.556 211.067,362.783 205.712,351.237C200.357,339.691 196.237,323.431 193.353,302.455C190.468,281.479 189.026,256.906 189.026,228.735C189.026,200.798 190.47,176.195 193.358,154.924C196.246,133.653 200.294,117.049 205.501,105.114C210.709,93.179 216.809,87.211 223.8,87.211C228.074,87.211 232.201,89.74 236.18,94.797C240.159,99.854 243.73,107.825 246.893,118.709C250.055,129.593 252.558,143.709 254.401,161.057C256.243,178.405 257.165,199.404 257.165,224.054L257.165,242.772L197.298,242.772L197.298,203.066L242.776,203.066C242.769,189.218 241.987,176.875 240.428,166.038C238.87,155.202 236.678,146.658 233.852,140.406C231.026,134.155 227.715,131.03 223.918,131.03C219.795,131.03 216.211,134.652 213.166,141.895C210.121,149.139 207.771,158.598 206.114,170.274C204.458,181.95 203.623,194.583 203.61,208.173L203.61,239.085C203.61,257.284 204.502,272.764 206.286,285.527C208.069,298.289 210.562,308.015 213.764,314.704C216.966,321.393 220.703,324.737 224.976,324.737C227.78,324.737 230.324,323.295 232.607,320.412C234.891,317.529 236.863,313.198 238.522,307.42C240.182,301.641 241.456,294.462 242.345,285.881L256.223,294.958C255.113,309.705 253.13,322.603 250.274,333.652C247.419,344.702 243.836,353.281 239.527,359.391C235.217,365.501 230.328,368.556 224.859,368.556Z" style="fill:white;fill-rule:nonzero;"/>
                        <path d="M302.415,90.756L302.415,133.298L261.289,133.298L261.289,90.756L302.415,90.756ZM272.305,25.525L286.968,25.525L286.968,283.117C286.968,293.326 287.39,301.024 288.232,306.212C289.075,311.4 290.18,314.898 291.545,316.706C292.911,318.515 294.391,319.419 295.985,319.419C297.168,319.419 298.196,319.135 299.068,318.568C299.94,318 300.624,317.527 301.121,317.151L303.787,360.97C302.918,362.079 301.698,363.273 300.126,364.549C298.555,365.826 296.599,366.524 294.26,366.642C290.405,366.878 286.808,364.379 283.469,359.143C280.13,353.907 277.431,345.866 275.373,335.018C273.315,324.17 272.292,310.509 272.305,294.035L272.305,25.525Z" style="fill:white;fill-rule:nonzero;"/>
                        <path d="M328.141,201.365L328.141,363.025L313.478,363.025L313.478,0L327.945,0L327.945,135.143L328.886,135.143C330.637,120.417 333.326,108.747 336.953,100.133C340.579,91.518 345.313,87.211 351.155,87.211C356.323,87.211 360.843,91.04 364.715,98.697C368.586,106.354 371.595,117.793 373.742,133.014C375.889,148.235 376.959,167.19 376.952,189.879L376.952,363.025L362.289,363.025L362.289,196.261C362.296,176.266 360.876,160.75 358.03,149.713C355.185,138.675 351.233,133.157 346.176,133.157C342.706,133.157 339.61,135.822 336.889,141.151C334.168,146.481 332.031,154.233 330.479,164.407C328.927,174.581 328.148,186.9 328.141,201.365Z" style="fill:white;fill-rule:nonzero;"/>
                        <path d="M397.393,465.125C395.204,465.125 393.215,464.505 391.424,463.264C389.634,462.023 388.291,460.682 387.396,459.24L390.924,415.848C393.617,418.494 396.01,419.616 398.104,419.214C400.198,418.813 402.051,415.953 403.661,410.635C405.272,405.317 406.698,396.632 407.94,384.578L409.783,366.57L382.221,90.756L397.903,90.756L416.957,302.048L417.741,302.048L436.834,90.756L452.555,90.756L421.505,399.327C420.08,413.579 418.259,425.615 416.041,435.435C413.822,445.254 411.174,452.657 408.096,457.645C405.019,462.632 401.451,465.125 397.393,465.125Z" style="fill:white;fill-rule:nonzero;"/>
                        <path d="M515.879,157.264L502.589,165.772C502.04,159.651 501.168,153.802 499.972,148.224C498.776,142.646 497.167,138.078 495.145,134.521C493.122,130.964 490.585,129.185 487.534,129.185C483.385,129.185 479.922,132.542 477.145,139.254C474.368,145.967 472.983,154.57 472.989,165.063C472.983,174.187 473.916,181.501 475.788,187.007C477.659,192.513 480.66,197.063 484.789,200.656L496.787,210.583C503.713,216.325 508.873,225.241 512.268,237.331C515.662,249.42 517.363,265.084 517.37,284.322C517.363,300.678 516.058,315.195 513.454,327.875C510.85,340.554 507.24,350.504 502.623,357.725C498.007,364.945 492.664,368.556 486.593,368.556C478.151,368.556 471.269,362.033 465.947,348.987C460.625,335.941 457.353,317.363 456.131,293.254L470.284,285.314C471.192,298.763 473.017,308.885 475.758,315.679C478.499,322.473 482.072,325.87 486.476,325.87C491.285,325.87 495.125,322.23 497.997,314.952C500.869,307.673 502.308,298.787 502.315,288.294C502.308,279.689 501.434,272.504 499.693,266.737C497.952,260.971 495.271,256.623 491.65,253.692L478.948,243.481C471.898,237.786 466.703,228.593 463.364,215.9C460.025,203.208 458.359,187.208 458.366,167.899C458.359,151.828 459.596,137.748 462.075,125.658C464.555,113.568 467.982,104.138 472.357,97.367C476.731,90.596 481.751,87.211 487.417,87.211C495.552,87.211 501.954,93.569 506.622,106.284C511.291,119 514.377,135.993 515.879,157.264Z" style="fill:white;fill-rule:nonzero;"/>
                        <path d="M561.248,90.756L561.248,133.298L520.122,133.298L520.122,90.756L561.248,90.756ZM531.138,25.525L545.801,25.525L545.801,283.117C545.801,293.326 546.222,301.024 547.065,306.212C547.908,311.4 549.012,314.898 550.378,316.706C551.744,318.515 553.224,319.419 554.818,319.419C556.001,319.419 557.029,319.135 557.901,318.568C558.773,318 559.457,317.527 559.954,317.151L562.62,360.97C561.751,362.079 560.53,363.273 558.959,364.549C557.387,365.826 555.432,366.524 553.093,366.642C549.238,366.878 545.641,364.379 542.302,359.143C538.963,353.907 536.264,345.866 534.206,335.018C532.147,324.17 531.125,310.509 531.138,294.035L531.138,25.525Z" style="fill:white;fill-rule:nonzero;"/>
                        <path d="M635.44,0L653.631,0L653.631,237.243C653.631,263.193 651.937,286.03 648.549,305.752C645.161,325.475 640.412,340.873 634.302,351.946C628.193,363.019 621.058,368.556 612.897,368.556C604.709,368.556 597.561,363.019 591.452,351.946C585.342,340.873 580.6,325.475 577.225,305.752C573.85,286.03 572.162,263.193 572.162,237.243L572.162,0L590.354,0L590.354,231.712C590.354,246.838 591.276,260.292 593.118,272.073C594.961,283.854 597.57,293.095 600.944,299.796C604.319,306.497 608.303,309.847 612.897,309.847C617.503,309.847 621.496,306.497 624.874,299.796C628.252,293.095 630.857,283.854 632.69,272.073C634.523,260.292 635.44,246.838 635.44,231.712L635.44,0Z" style="fill:white;fill-rule:nonzero;"/>
                        <rect x="668.968" y="0" width="18.192" height="363.025" style="fill:white;fill-rule:nonzero;"/>
                    </g>
                </g>
            </g>
        </g>
    </g>
</svg>
